<?xml version="1.0" encoding="utf-8"?><svg xmlns="http://www.w3.org/2000/svg" xmlns:xlink="http://www.w3.org/1999/xlink"><symbol viewBox="0 0 16 13" id="arrow-goto-top"><path fill-rule="evenodd" clip-rule="evenodd" d="M8 1.94l6.759 6.56.741-.72L8 .5.5 7.78l.741.72L8 1.94z"/><path fill-rule="evenodd" clip-rule="evenodd" d="M8 5.94l6.759 6.56.741-.72L8 4.5.5 11.78l.741.72L8 5.94z"/></symbol><symbol viewBox="0 0 17 26" id="contacts-address"><path d="M8.5 6.094c-1.563 0-2.833 1.366-2.833 3.047 0 1.688 1.268 3.046 2.833 3.046 1.593 0 2.833-1.384 2.833-3.046 0-1.68-1.27-3.047-2.833-3.047z"/><path d="M8.5 0C3.813 0 0 4.1 0 9.14c0 1.703.439 3.365 1.268 4.807L8.016 25.64c.28.485.94.478 1.21-.01l6.576-11.807A9.67 9.67 0 0 0 17 9.141C17 4.1 13.187 0 8.5 0zm0 13.721c-2.377 0-4.26-2.08-4.26-4.58 0-2.52 1.916-4.58 4.26-4.58s4.26 2.06 4.26 4.58c0 2.477-1.857 4.58-4.26 4.58z"/></symbol><symbol viewBox="0 0 31 20" id="contacts-email"><path d="M15.5 12.76L1.398 0h28.204L15.5 12.76zM9.883 9.996L0 18.938V1.053l9.883 8.943z"/><path d="M11.164 11.155L15.5 15.08l4.336-3.924L29.61 20H1.39l9.774-8.845zm9.953-1.159L31 1.053v17.885l-9.883-8.942z"/></symbol><symbol viewBox="0 0 20 20" id="contacts-fio"><path d="M10 0C4.477 0 0 4.477 0 10s4.477 10 10 10 10-4.477 10-10S15.523 0 10 0zm3.341 6.439a1.538 1.538 0 1 1 0 3.077 1.538 1.538 0 0 1 0-3.077zm-6.682 0a1.538 1.538 0 1 1 0 3.077 1.538 1.538 0 0 1 0-3.077zM10 16.264a6.291 6.291 0 0 1-5.88-4.102l1.238-.457A4.968 4.968 0 0 0 10 14.945a4.968 4.968 0 0 0 4.642-3.24l1.237.457A6.291 6.291 0 0 1 10 16.264z"/></symbol><symbol viewBox="0 0 20 20" id="contacts-note"><path d="M20 2c0-1.1-.9-2-2-2H2C.9 0 0 .9 0 2v12c0 1.1.9 2 2 2h14l4 4V2zm-4 10H4v-2h12v2zm0-3H4V7h12v2zm0-3H4V4h12v2z"/></symbol><symbol viewBox="0 0 31 29" id="contacts-tel"><path d="M21.42 15.222c-.06.087-.06.174-.09.29a.715.715 0 0 0 .662.75c.392.03.753-.26.783-.635 0-.087 0-.174.03-.318v-.318a7.35 7.35 0 0 0-.421-2.426c-.362-1.011-.994-1.907-1.748-2.658a7.706 7.706 0 0 0-3.374-1.877 8.317 8.317 0 0 0-1.898-.231c-.21 0-.422 0-.663.029l-.632.086c-.392.058-.663.434-.573.78.06.376.452.636.814.55.18-.03.331-.059.512-.059h.09c.15 0 .302-.029.452-.029 1.657 0 3.194.636 4.278 1.705a5.705 5.705 0 0 1 1.778 4.044v.317z"/><path d="M25.396 15.858a.715.715 0 0 0 .663.75c.392.03.753-.26.784-.635.03-.317.03-.635.03-.953 0-.635-.06-1.242-.151-1.849-.392-2.31-1.567-4.39-3.224-5.979a11.645 11.645 0 0 0-7.23-3.206c-.301-.029-.633-.029-.934-.029a11.643 11.643 0 0 0-1.988.144c-.392.058-.663.434-.573.78.06.376.452.636.814.55.21-.03.391-.059.602-.087.09 0 .181-.03.271-.03.302-.028.603-.028.874-.028 1.024 0 1.988.144 2.922.404 1.627.462 3.073 1.3 4.248 2.426a9.903 9.903 0 0 1 2.26 3.265 9.412 9.412 0 0 1 .723 3.581v.29c-.06.23-.09.404-.09.606z"/><path d="M26.42 4.42C23.56 1.674 19.643 0 15.305 0c-.452 0-.904.029-1.356.058-.452.029-.904.086-1.355.173-.392.058-.663.433-.573.78.06.375.452.635.814.549.21-.03.391-.058.602-.087.211-.029.422-.058.633-.058.422-.029.813-.057 1.235-.057 3.916 0 7.471 1.53 10.062 3.986 2.561 2.455 4.158 5.863 4.158 9.647v.636c0 .173-.03.346-.03.549a.715.715 0 0 0 .662.75c.392.03.754-.26.784-.635.03-.433.06-.866.06-1.27 0-4.131-1.747-7.886-4.58-10.602zm3.465 17.504l-5.332-2.744c-1.778-.924-1.838-.318-3.706 1.589-.452.462-1.295 1.675-2.29 1.444-2.078-.491-5.964-3.408-7.23-4.737-.602-.636-3.193-3.669-3.223-4.65-.06-1.503 3.374-2.254 2.26-5.113L7.983 2.6C5.753-2.31-.483 5.546.03 9.215c1.325 9.04 17.865 23.657 27.084 18.833 2.048-1.098 4.82-4.94 2.771-6.124z"/></symbol><symbol viewBox="0 0 12 15" id="icon-more"><path fill-rule="evenodd" clip-rule="evenodd" d="M10.56 7.5L4 14.259l.72.741L12 7.5 4.72 0 4 .741 10.56 7.5z"/><path fill-rule="evenodd" clip-rule="evenodd" d="M6.56 7.5L0 14.259.72 15 8 7.5.72 0 0 .741 6.56 7.5z"/></symbol><symbol viewBox="0 0 16 17" id="icon-search"><path d="M15.757 15.484l-3.944-4.208a6.949 6.949 0 0 0 1.57-4.412C13.382 3.079 10.38 0 6.69 0 3.001 0 0 3.08 0 6.864s3.002 6.863 6.691 6.863a6.505 6.505 0 0 0 3.834-1.242l3.974 4.24a.856.856 0 0 0 1.234.025.913.913 0 0 0 .024-1.266zM6.69 1.791c2.727 0 4.946 2.275 4.946 5.073 0 2.797-2.219 5.073-4.946 5.073S1.746 9.66 1.746 6.864c0-2.798 2.218-5.073 4.945-5.073z"/></symbol><symbol viewBox="0 0 182 69" fill="none" id="logotip"><path d="M39.869 54.806c.628 0 1.208.047 1.74.159.533.111.994.302 1.392.572.389.27.699.62.922 1.066.23.445.341.993.341 1.661 0 .66-.11 1.209-.341 1.654A2.713 2.713 0 0 1 43 60.975a4.135 4.135 0 0 1-1.391.573 8.493 8.493 0 0 1-1.741.175h-1.327v3.164h-2.663V54.806h3.99zm1.661 3.458c0-.23-.04-.421-.127-.572a.835.835 0 0 0-.334-.35 1.406 1.406 0 0 0-.493-.183 3.36 3.36 0 0 0-.58-.048h-1.454v2.306h1.454c.207 0 .398-.024.58-.056.183-.031.35-.095.493-.174a.905.905 0 0 0 .334-.358c.087-.151.127-.334.127-.565zm10.007 4.651c0 .168.048.279.151.342a.644.644 0 0 0 .326.088.81.81 0 0 0 .278-.04v1.51c-.167.072-.358.12-.572.16-.215.04-.437.056-.668.056-.77 0-1.32-.255-1.645-.764-.334.263-.7.47-1.09.612a3.61 3.61 0 0 1-1.319.231c-.333 0-.643-.048-.93-.151a2.208 2.208 0 0 1-.762-.413 1.959 1.959 0 0 1-.525-.668 2.195 2.195 0 0 1-.183-.907c0-.43.096-.795.278-1.09.191-.285.43-.524.716-.699.286-.183.612-.302.961-.381a5.23 5.23 0 0 1 1.042-.104c.516 0 1.017.056 1.494.16v-.247c0-.247-.12-.453-.35-.62-.238-.16-.596-.247-1.089-.247a4.92 4.92 0 0 0-1.303.167 10.9 10.9 0 0 0-1.12.366v-2.06a12.31 12.31 0 0 1 1.184-.302c.238-.047.484-.087.739-.11a6.624 6.624 0 0 1 2.265.111c.445.103.826.286 1.144.532.318.255.565.58.732.994.167.413.246.93.246 1.542v1.933zm-4.42-.143c0 .183.072.342.223.477.151.136.35.2.612.2.199 0 .398-.025.58-.08.183-.056.366-.143.557-.279v-.938a1.938 1.938 0 0 0-.398-.095 3.197 3.197 0 0 0-.476-.032c-.295 0-.549.056-.763.16-.223.11-.334.31-.334.587zm5.708 3.92v-3.601h.993c.406-.7.66-1.48.78-2.338.11-.85.158-1.781.126-2.783h5.977v5.12h1.057v3.602h-2.233v-1.805h-4.467v1.805h-2.233zm4.133-6.917c-.016.684-.072 1.28-.167 1.797a6.43 6.43 0 0 1-.47 1.518h1.932v-3.315h-1.295zm5.866 5.112V57.97h2.448v3.276l2.464-3.276h2.146v6.917h-2.449V61.62l-2.463 3.267h-2.146zm8.178-3.458c0-.613.112-1.145.318-1.606.215-.453.493-.835.85-1.145.358-.31.772-.54 1.24-.692.47-.151.962-.23 1.487-.23.517 0 1.01.079 1.478.23a3.385 3.385 0 0 1 2.09 1.837c.215.46.319.993.319 1.606 0 .62-.104 1.153-.318 1.606a3.278 3.278 0 0 1-.85 1.153 3.63 3.63 0 0 1-1.24.691c-.47.151-.962.231-1.479.231-.525 0-1.017-.08-1.486-.23a3.784 3.784 0 0 1-1.24-.692 3.377 3.377 0 0 1-.85-1.153c-.207-.453-.319-.986-.319-1.606zm5.262 0c0-.191-.024-.374-.072-.557a1.26 1.26 0 0 0-.238-.485 1.222 1.222 0 0 0-.43-.342c-.166-.087-.38-.127-.627-.127-.254 0-.469.04-.644.127a1.126 1.126 0 0 0-.421.342 1.247 1.247 0 0 0-.23.485 2.242 2.242 0 0 0 0 1.121c.047.183.119.342.23.485.103.135.246.247.421.334.175.088.39.135.644.135.246 0 .461-.047.628-.135a1.3 1.3 0 0 0 .43-.334 1.32 1.32 0 0 0 .237-.485c.048-.183.072-.373.072-.564zm6.343 2.25c0 .254-.04.461-.12.644a1.187 1.187 0 0 1-.317.437c-.136.12-.287.199-.47.262a1.862 1.862 0 0 1-1.12 0 1.353 1.353 0 0 1-.469-.262 1.216 1.216 0 0 1-.326-.437 1.58 1.58 0 0 1-.12-.644c0-.239.04-.445.12-.628.08-.175.19-.326.326-.438a1.36 1.36 0 0 1 .469-.262 1.865 1.865 0 0 1 1.12 0c.184.064.335.143.47.262.135.112.238.263.318.438.079.183.119.39.119.628zm15.626-8.873v10.081H95.57V59.53l-2.161 3.315h-1.527l-2.162-3.331v5.374h-2.662V54.806h2.52l3.067 4.723 3.069-4.723h2.52zm1.614 10.081V57.97h2.448v2.449h2.162V57.97h2.448v6.917h-2.448v-2.449h-2.162v2.45h-2.448zm8.186-3.458c0-.613.104-1.145.318-1.606a3.378 3.378 0 0 1 2.091-1.837c.469-.151.961-.23 1.478-.23s1.017.079 1.486.23a3.51 3.51 0 0 1 1.24.692c.358.31.636.692.851 1.145.206.46.318.993.318 1.606 0 .62-.112 1.153-.318 1.606a3.38 3.38 0 0 1-.851 1.153 3.776 3.776 0 0 1-1.24.691 4.84 4.84 0 0 1-1.486.231c-.517 0-1.009-.08-1.478-.23a3.62 3.62 0 0 1-1.24-.692 3.28 3.28 0 0 1-.851-1.153c-.214-.453-.318-.986-.318-1.606zm5.254 0c0-.191-.024-.374-.071-.557a1.27 1.27 0 0 0-.239-.485 1.122 1.122 0 0 0-.421-.342 1.397 1.397 0 0 0-.636-.127c-.246 0-.461.04-.636.127a1.09 1.09 0 0 0-.429.342 1.382 1.382 0 0 0-.231.485 2.211 2.211 0 0 0 0 1.121c.048.183.128.342.231.485.103.135.246.247.429.334.175.088.39.135.636.135.254 0 .461-.047.636-.135.175-.087.318-.199.421-.334a1.33 1.33 0 0 0 .239-.485 2.27 2.27 0 0 0 .071-.564zm3.648 3.458V57.97h5.389v2.02h-2.941v4.897h-2.448zm5.834-3.458c0-.613.104-1.145.318-1.606.215-.453.493-.835.851-1.145.357-.31.771-.54 1.24-.692.469-.151.961-.23 1.486-.23.517 0 1.009.079 1.478.23a3.51 3.51 0 0 1 1.24.692c.358.31.644.692.851 1.145.214.46.318.993.318 1.606 0 .62-.104 1.153-.318 1.606a3.28 3.28 0 0 1-.851 1.153 3.776 3.776 0 0 1-1.24.691 4.792 4.792 0 0 1-1.478.231c-.525 0-1.017-.08-1.486-.23a3.776 3.776 0 0 1-1.24-.692 3.38 3.38 0 0 1-.851-1.153c-.214-.453-.318-.986-.318-1.606zm5.262 0c0-.191-.024-.374-.071-.557a1.27 1.27 0 0 0-.239-.485 1.217 1.217 0 0 0-.429-.342c-.167-.087-.382-.127-.628-.127-.254 0-.469.04-.644.127a1.217 1.217 0 0 0-.429.342 1.364 1.364 0 0 0-.23.485 2.228 2.228 0 0 0 0 1.121c.047.183.127.342.23.485.111.135.254.247.429.334.175.088.39.135.644.135.246 0 .461-.047.628-.135a1.29 1.29 0 0 0 .429-.334 1.33 1.33 0 0 0 .239-.485 2.27 2.27 0 0 0 .071-.564zm8.799-2.52c.175-.287.453-.55.834-.796.39-.238.891-.358 1.519-.358.572 0 1.073.112 1.494.326.421.215.771.493 1.049.843.27.342.477.74.604 1.185a4.74 4.74 0 0 1 0 2.655 3.52 3.52 0 0 1-.604 1.177 3.233 3.233 0 0 1-1.049.843c-.421.215-.922.326-1.494.326-.493 0-.907-.08-1.24-.23a2.507 2.507 0 0 1-.819-.55v3.73h-2.456V57.97h2.162v.938zm3.171 2.52a2.24 2.24 0 0 0-.087-.597 1.6 1.6 0 0 0-.262-.532 1.365 1.365 0 0 0-.461-.382 1.49 1.49 0 0 0-.676-.143c-.334 0-.62.087-.866.262-.247.183-.422.382-.525.605v1.582c.103.222.278.421.525.596.246.183.532.27.866.27.262 0 .485-.047.676-.143.182-.095.341-.222.461-.381.119-.16.206-.342.262-.533a2.25 2.25 0 0 0 .087-.604zm10.198 1.486c0 .168.048.279.151.342a.644.644 0 0 0 .326.088.812.812 0 0 0 .278-.04v1.51c-.167.072-.358.12-.572.16a3.66 3.66 0 0 1-.668.056c-.771 0-1.319-.255-1.645-.764-.334.263-.7.47-1.089.612a3.62 3.62 0 0 1-1.32.231c-.333 0-.643-.048-.93-.151a2.213 2.213 0 0 1-.763-.413 1.963 1.963 0 0 1-.524-.668 2.2 2.2 0 0 1-.183-.907c0-.43.095-.795.278-1.09.191-.285.429-.524.716-.699.286-.183.612-.302.961-.381a5.23 5.23 0 0 1 1.042-.104c.516 0 1.017.056 1.494.16v-.247c0-.247-.119-.453-.35-.62-.238-.16-.596-.247-1.089-.247-.461 0-.898.056-1.303.167a9.89 9.89 0 0 0-1.113.366v-2.06a9.34 9.34 0 0 1 .517-.15 9.07 9.07 0 0 1 .659-.152 7.2 7.2 0 0 1 .739-.11 6.627 6.627 0 0 1 2.266.111c.445.103.826.286 1.144.532.318.255.565.58.731.994.167.413.247.93.247 1.542v1.933zm-4.419-.143c0 .183.071.342.222.477.151.136.35.2.612.2.199 0 .398-.025.58-.08a1.92 1.92 0 0 0 .557-.279v-.938a1.956 1.956 0 0 0-.398-.095 3.13 3.13 0 0 0-.477-.032c-.294 0-.548.056-.763.16-.222.11-.333.31-.333.587zm5.706 3.92v-3.601h.994c.405-.7.66-1.48.779-2.338.111-.85.159-1.781.127-2.783h5.977v5.12h1.057v3.602h-2.233v-1.805h-4.467v1.805h-2.234zm4.134-6.917c-.016.684-.072 1.28-.167 1.797a6.482 6.482 0 0 1-.469 1.518h1.931v-3.315h-1.295zm5.865 5.112V57.97h2.448v3.276l2.464-3.276h2.146v6.917h-2.448V61.62l-2.464 3.267h-2.146zm8.179-3.458c0-.613.111-1.145.318-1.606.215-.453.493-.835.851-1.145a3.53 3.53 0 0 1 1.239-.692c.469-.151.962-.23 1.487-.23.516 0 1.009.079 1.478.23a3.386 3.386 0 0 1 2.091 1.837c.214.46.318.993.318 1.606 0 .62-.104 1.153-.318 1.606a3.28 3.28 0 0 1-.851 1.153 3.63 3.63 0 0 1-1.24.691 4.797 4.797 0 0 1-1.478.231c-.525 0-1.018-.08-1.487-.23a3.781 3.781 0 0 1-1.239-.692 3.38 3.38 0 0 1-.851-1.153c-.207-.453-.318-.986-.318-1.606zm5.262 0c0-.191-.024-.374-.072-.557a1.253 1.253 0 0 0-.659-.827 1.42 1.42 0 0 0-.636-.127c-.255 0-.469.04-.644.127a1.122 1.122 0 0 0-.421.342 1.242 1.242 0 0 0-.231.485 2.211 2.211 0 0 0 0 1.121 1.3 1.3 0 0 0 .231.485c.103.135.246.247.421.334.175.088.389.135.644.135.246 0 .461-.047.636-.135.167-.087.31-.199.421-.334a1.31 1.31 0 0 0 .238-.485c.048-.183.072-.373.072-.564zm6.343 2.25c0 .254-.04.461-.12.644a1.183 1.183 0 0 1-.318.437c-.135.12-.286.199-.468.262a1.866 1.866 0 0 1-.565.088c-.198 0-.381-.032-.556-.088a1.35 1.35 0 0 1-.469-.262 1.212 1.212 0 0 1-.326-.437 1.587 1.587 0 0 1-.119-.644c0-.239.04-.445.119-.628.079-.175.191-.326.326-.438a1.35 1.35 0 0 1 .469-.262 1.815 1.815 0 0 1 1.121 0c.182.064.333.143.468.262.136.112.239.263.318.438.08.183.12.39.12.628z" fill="#FEFEFE"/><path fill-rule="evenodd" clip-rule="evenodd" d="M22.16 23.304v-.04l-5.794-3.76c-1.082-.708-2.568-1.623-3.601-2.33l-2.186-1.44c0-1.271-.048-2.647.048-3.848.087-1.105.7-1.86 1.645-2.242.954-.381 2.226-.278 3.513-.278 3.108 0 6.462-.048 9.546 0 .533.008.413.008.413-.556V0H8.8C7.138.064 5.524.342 4.117 1.32 2.694 2.306 1.502 4.03.962 5.693l-.286.906c-.048.16-.088.31-.128.461L.254 8.515C.127 9.143 0 10.567 0 11.203.008 23.757 0 36.32 0 48.874h10.58V30.189c.174-.047.532-.31.722-.413l10.858-6.472z" fill="#FEFEFE"/><path d="M172.096 4.501H42.134v38.283h129.962V4.501z" fill="#FEFEFE"/><path fill-rule="evenodd" clip-rule="evenodd" d="M128.285 15.472c.064-2.305.008-4.69.008-7.004l-.016-2.616c.032-.318.199-.366.493-.414 1.002-.182 2.075-.182 2.965.191.715.294 1.502 1.01 1.78 1.678.279.636.167 2.496.167 3.34v14.072c0 2.203.064 4.445-.683 6.353-.644 1.622-1.995 3.021-3.092 3.84-4.411 3.324-11.811 2.696-14.959-1.495-.93-1.24-1.677-3.02-1.987-4.969-.318-1.972-.342-4.707-.151-6.726.334-3.681 2.289-6.886 5.516-8.404 2.989-1.4 7.495-1.153 9.586 1.661.071.096.302.438.373.493zM46.18 0h125.733c.215 0 .358.008.406.016l1.28.183a10.578 10.578 0 0 1 3.846 1.701c.08.056.112.072.199.135.421.295.843.66 1.2 1.034l1.304 1.606c.294.43.604.914.811 1.4.715 1.645 1.041 2.997 1.041 4.913v26.858c0 1.519-.159 2.56-.588 3.88-.334 1.042-.891 2.052-1.534 2.918l-.676.803c-.564.732-1.621 1.519-2.392 1.996-.604.373-1.272.684-2.003.938a9.664 9.664 0 0 1-3.005.54H46.808c-.954-.023-1.733-.063-2.114-.127-1.225-.206-2.218-.54-3.243-1.12l-.907-.557c-2.384-1.622-4.148-4.317-4.562-7.251-.111-.764-.08-.66-.111-1.384-.016-.238-.048-.421-.048-.723v-6.671c-.175-.04-.302-.135-.445-.223a5.866 5.866 0 0 0-.43-.246c-.277-.16-.563-.318-.858-.493-1.12-.684-2.273-1.304-3.417-1.956l-8.1-4.651c-.11-.064-.286-.183-.413-.215v-.04l.096-.08c.008-.007.015-.015.023-.015.589-.414 1.797-1.082 2.44-1.471.16-.096.263-.151.422-.255.159-.095.262-.159.421-.246l2.154-1.296c.167-.095.262-.159.421-.254l2.997-1.805c.159-.088.262-.151.421-.247.413-.262 4.07-2.488 4.268-2.544v-2.99c0-2.552.143-4.039 1.208-6.249.493-1.018 1.383-2.258 2.226-2.981.39-.334.779-.684 1.208-.978C42.492.469 44.217.087 46.18 0zm63.451 25.983l-15.523.136c-.143.715.135 1.98.35 2.6.262.763.651 1.383 1.104 1.852 1.113 1.16 2.48 1.781 4.205 1.59 1.733-.183 2.973-1.145 3.871-1.98.485-.453.167-.413 1.049-.413h4.372c-.143.811-1.391 2.838-1.94 3.522-.811 1.018-1.645 1.829-2.925 2.553-2.535 1.43-5.905 1.804-8.87.667-2.623-1.001-4.467-2.886-5.532-5.406-.572-1.36-.978-2.664-1.145-4.341-.166-1.686-.198-3.578.056-5.24.493-3.252 2.154-5.693 3.855-7.124 2.106-1.773 5.174-2.433 8.576-1.82 4.682.842 7.09 4.118 8.068 8.316.238 1.034.628 4.031.429 5.088zm-39.01 10.75h-5.763c-.055-4.818-.008-9.74-.008-14.582 0-1.034.064-1.71-.357-2.576-1.304-2.695-6.025-2.457-7.56.08-.452.755-.5 1.39-.5 2.409v11.72c0 .937.048 2.003-.008 2.925-.373.048-5.166.048-5.365-.008-.056-1.797-.016-3.681-.024-5.486-.016-1.837-.024-3.681-.032-5.518-.015-1.82-.063-3.705-.023-5.518.031-1.725.445-3.188 1.263-4.27.74-.977 1.677-1.709 3.084-2.353 3.656-1.677 8.537-1.693 11.708.89.127.104.23.207.358.319.127.103.246.262.381.35.398-.287.517-.605 1.494-1.225 4.221-2.663 10.882-1.717 13.95 2.028.938 1.152 1.399 2.09 1.383 4.094l-.04 13.724c0 .898.04 1.9-.008 2.782-1.661.414-3.847.366-4.817-1.208-.874-1.431-.635-4.023-.635-5.932v-6.59c0-1.034.103-2.1-.303-2.966-1.462-3.117-7.034-2.99-8.02.58-.246.874-.158 2.147-.158 3.117 0 4.397.055 8.825 0 13.214zm83.663-17.93l-5.611.009c-.088-.51.739-2.179.961-2.52 1.479-2.227 3.911-3.364 6.717-3.706 3.561-.437 8.067.557 9.959 3.69.572.954.707 1.447.699 2.798v7.053c0 1.12.088 2.409-.055 3.498-.263 1.964-1.542 3.594-2.496 4.5-.572.549-1.184 1.05-2.003 1.487-2.599 1.4-5.683 1.868-8.6 1.145-1.709-.421-3.338-1.193-4.324-2.616-2.074-2.958-1.431-8.348 1.455-10.13 1.208-.747 3.727-1.271 5.341-1.574.954-.183 1.915-.35 2.837-.588.851-.23 1.717-.564 2.321-1.177.676-.692.509-1.9-.087-2.52a3.33 3.33 0 0 0-.978-.748c-1.263-.683-3.012-.842-4.276-.246-.882.413-1.343.978-1.86 1.646zm-9.84 17.898h-5.389V16.546c0-1.098-.031-2.242-.016-3.34.008-.46.342-.453 1.097-.548 1.606-.183 2.584.167 3.649 1.216.675.676.683 1.408.659 2.632-.032 2.226 0 4.484 0 6.71v13.485zm-5.389-26.468c0-1.288.008-2.576 0-3.864 0-.978 0-.843.93-.962 1.622-.215 3.108.15 4.022 1.478.668.978.453 2.012.437 3.324-.198.064-4.92.064-5.389.024z" fill="#f01f30"/><path fill-rule="evenodd" clip-rule="evenodd" d="M128.731 25.314c.214-3.84-1.828-7.672-5-8.085-2.114-.279-3.561 1.025-4.387 2.09-2.114 2.72-2.226 7.331-.445 10.257.723 1.177 1.947 2.52 3.783 2.751 2.114.263 3.577-1.057 4.372-2.099.93-1.216 1.573-2.918 1.677-4.914zm32.928 1.926v-2.6c-.143.04-.747.35-1.311.508-.509.152-1.026.247-1.558.326-1.065.168-2.218.27-3.195.565-1.034.318-1.693.835-2.091 1.67-.421.906-.492 2.305-.039 3.212 1.208 2.433 5.762 2.083 7.566-.485.581-.827.628-2.004.628-3.196zm-67.456-5.137l9.681.008c-.214-2.592-2.202-5-4.825-4.953-2.527.04-4.729 2.401-4.856 4.945z" fill="#f01f30"/></symbol><symbol viewBox="0 0 371.23 371.23" id="modal-close"><path d="M371.23 21.213L350.018 0 185.615 164.402 21.213 0 0 21.213l164.402 164.402L0 350.018l21.213 21.212 164.402-164.402L350.018 371.23l21.212-21.212-164.402-164.403z"/></symbol><symbol viewBox="0 0 17 9" id="navbar-dropdown"><path fill-rule="evenodd" clip-rule="evenodd" d="M8.5 7.38L.84 0 0 .81 8.5 9 17 .81 16.16 0 8.5 7.38z"/></symbol><symbol viewBox="0 0 57 59" id="navbar-homepage"><path d="M7.355 26.663L28.5 6.875l21.145 19.788V59h-14.71V36.943c0-.981-.796-1.776-1.78-1.776h-9.31c-.983 0-1.78.795-1.78 1.776V59H7.355V26.663z"/><path fill-rule="evenodd" clip-rule="evenodd" d="M28.5 0l27.914 25.913c.743.69.785 1.85.093 2.59a1.842 1.842 0 0 1-2.599.093L28.5 5.01 3.092 28.596a1.843 1.843 0 0 1-2.599-.092 1.83 1.83 0 0 1 .093-2.591L28.5 0z"/><path d="M38.613 6.171v3.667l7.355 7.333v-11h-7.355z"/></symbol><symbol viewBox="0 0 34 59" id="navbar-projects"><path fill-rule="evenodd" clip-rule="evenodd" d="M0 29a2 2 0 1 1 4 0v6c0 7.168 5.832 13 13 13s13-5.832 13-13v-6a2 2 0 1 1 4 0v6c0 8.698-6.568 15.869-15 16.863V55h4a2 2 0 1 1 0 4H11a2 2 0 1 1 0-4h4v-3.137C6.568 50.869 0 43.699 0 35v-6zm16.837 21l.163.01.163-.01a14.825 14.825 0 0 1-.326 0z"/><path d="M17 46c6.065 0 11-4.935 11-11V11c0-6.065-4.935-11-11-11S6 4.935 6 11v24c0 6.065 4.935 11 11 11z"/></symbol><symbol viewBox="0 0 7 13" id="pagin-next"><path d="M6.892 6.76L.641 12.891a.379.379 0 0 1-.53 0 .362.362 0 0 1 0-.52L6.094 6.5.11.63a.362.362 0 0 1 0-.521A.38.38 0 0 1 .374 0a.37.37 0 0 1 .264.109l6.251 6.133a.361.361 0 0 1 .003.517z"/></symbol><symbol viewBox="0 0 7 13" id="pagin-prev"><path d="M.108 6.76l6.251 6.132a.379.379 0 0 0 .53 0 .362.362 0 0 0 0-.52L.906 6.5 6.89.63a.362.362 0 0 0 0-.521A.381.381 0 0 0 6.626 0a.37.37 0 0 0-.264.109L.111 6.242a.361.361 0 0 0-.003.517z"/></symbol><symbol viewBox="0 0 40 72" id="slick-left"><path fill-rule="evenodd" clip-rule="evenodd" d="M7.07 35.768L39.303 68l-3.536 3.536L0 35.768 35.767 0l3.536 3.536L7.07 35.768z"/></symbol><symbol viewBox="0 0 40 72" id="slick-right"><path fill-rule="evenodd" clip-rule="evenodd" d="M32.232 35.768L0 3.536 3.536 0l35.767 35.768L3.536 71.535 0 68l32.232-32.232z"/></symbol><symbol viewBox="0 0 25 24" id="soc-inst"><path d="M21.174 0H3.326C1.492 0 0 1.462 0 3.259V20.74C0 22.538 1.492 24 3.326 24h17.848c1.834 0 3.326-1.462 3.326-3.259V3.26C24.5 1.462 23.008 0 21.174 0zM12.25 17.863c-3.021 0-5.48-2.408-5.48-5.367 0-2.96 2.459-5.368 5.48-5.368 3.021 0 5.48 2.408 5.48 5.368 0 2.96-2.459 5.367-5.48 5.367zm10.176-9.33h-4.95a6.852 6.852 0 0 0-5.226-2.399 6.852 6.852 0 0 0-5.225 2.4h-4.95v-4.66c0-1.185.983-2.149 2.192-2.149h15.966c1.209 0 2.193.964 2.193 2.148v4.66z"/><path d="M12.25 9.045c-1.942 0-3.522 1.548-3.522 3.45 0 1.903 1.58 3.451 3.522 3.451 1.942 0 3.522-1.548 3.522-3.45 0-1.903-1.58-3.45-3.522-3.45zm7.476-5.942h-2.12a.87.87 0 0 0-.879.86V6.04c0 .475.394.86.879.86h2.12a.87.87 0 0 0 .878-.86V3.963a.87.87 0 0 0-.878-.86z"/></symbol><symbol viewBox="0 0 25 24" id="soc-vk"><path fill-rule="evenodd" clip-rule="evenodd" d="M3.5 0a3 3 0 0 0-3 3v18a3 3 0 0 0 3 3H22a3 3 0 0 0 3-3V3a3 3 0 0 0-3-3H3.5zm18.421 16.662c.02.03.04.067.063.11.023.045.046.124.069.236a.629.629 0 0 1-.005.302c-.026.088-.107.17-.243.243-.136.074-.328.111-.574.111l-2.488.036a1.199 1.199 0 0 1-.544-.045 2.48 2.48 0 0 1-.505-.195l-.195-.107a4.425 4.425 0 0 1-.68-.567 16.43 16.43 0 0 1-.666-.686 3.107 3.107 0 0 0-.593-.515c-.21-.139-.393-.185-.549-.137a.663.663 0 0 0-.077.03.858.858 0 0 0-.166.13 1.15 1.15 0 0 0-.209.26 1.705 1.705 0 0 0-.165.462 2.68 2.68 0 0 0-.063.687c0 .088-.011.17-.034.243a.561.561 0 0 1-.073.164l-.039.045c-.116.112-.288.177-.515.195h-1.117a4.816 4.816 0 0 1-1.42-.147 5.747 5.747 0 0 1-1.278-.47c-.366-.192-.7-.386-1-.585a5.652 5.652 0 0 1-.686-.51l-.243-.212a6.034 6.034 0 0 1-.267-.266 20.077 20.077 0 0 1-.695-.806c-.35-.42-.693-.866-1.03-1.34a26.71 26.71 0 0 1-1.19-1.87 28.238 28.238 0 0 1-1.269-2.411.652.652 0 0 1-.058-.24c0-.064.01-.112.029-.141l.039-.053c.097-.113.282-.169.554-.169l2.663-.017c.078.011.152.03.223.057a.678.678 0 0 1 .156.076l.048.026c.104.065.182.16.234.284.13.295.278.601.447.918.168.316.301.556.398.722l.156.257c.188.355.369.662.544.922.175.26.332.462.471.607.14.145.274.259.404.341.13.083.24.125.33.125.09 0 .178-.015.262-.045a.165.165 0 0 0 .049-.044c.02-.024.058-.088.117-.195.058-.106.102-.245.13-.416.03-.172.06-.412.093-.719a6.307 6.307 0 0 0 0-1.108 3.769 3.769 0 0 0-.087-.647 1.594 1.594 0 0 0-.136-.408l-.059-.106c-.162-.201-.437-.328-.826-.381-.084-.012-.068-.083.049-.213.11-.112.233-.201.37-.266.343-.153 1.117-.225 2.322-.213.531.006.969.044 1.312.116.13.029.238.069.326.12.087.05.154.12.2.212.044.092.078.186.1.283.023.098.035.233.035.404 0 .172-.003.334-.01.488l-.024.624c-.01.264-.015.507-.015.732 0 .065-.003.189-.01.372a6.838 6.838 0 0 0-.004.426c.003.1.014.22.034.359.02.139.056.254.112.345a.611.611 0 0 0 .218.218l.165.035c.059.012.143-.02.253-.097.11-.078.233-.179.37-.306.135-.127.304-.325.505-.594.2-.269.42-.587.66-.953a13.98 13.98 0 0 0 1.04-1.994.604.604 0 0 1 .098-.156.413.413 0 0 1 .107-.093l.038-.026.05-.022.125-.027a.399.399 0 0 1 .195-.005l2.799-.017c.253-.03.46-.023.622.022.162.044.262.093.301.146l.058.089c.15.378-.337 1.246-1.458 2.606a53.3 53.3 0 0 1-.632.753c-.505.591-.797.978-.874 1.162-.11.242-.065.481.136.717.11.125.373.367.787.728h.01l.01.009.01.008.019.018c.913.774 1.532 1.427 1.856 1.96z"/></symbol><symbol viewBox="0 0 38 38" id="view"><path d="M14.771 0C6.614 0 0 6.613 0 14.77c0 8.155 6.614 14.768 14.771 14.768a14.71 14.71 0 0 0 8.438-2.644v-.002l10.955 10.954a.515.515 0 0 0 .735 0l2.952-2.952a.529.529 0 0 0 0-.736L26.898 23.207a14.714 14.714 0 0 0 2.645-8.438C29.543 6.613 22.929 0 14.77 0zm0 26.063c-6.238 0-11.295-5.056-11.295-11.294S8.533 3.475 14.77 3.475c6.24 0 11.296 5.056 11.296 11.294S21.01 26.063 14.771 26.063z"/><path d="M15.64 8.688h-1.737V13.9H8.689v1.738h5.214v5.213h1.738v-5.213h5.213V13.9h-5.213V8.688z"/></symbol></svg>