<?xml version="1.0" encoding="utf-8"?><svg xmlns="http://www.w3.org/2000/svg" xmlns:xlink="http://www.w3.org/1999/xlink"><symbol viewBox="0 0 16 13" id="arrow-goto-top"><path fill-rule="evenodd" clip-rule="evenodd" d="M8 1.94l6.759 6.56.741-.72L8 .5.5 7.78l.741.72L8 1.94z"/><path fill-rule="evenodd" clip-rule="evenodd" d="M8 5.94l6.759 6.56.741-.72L8 4.5.5 11.78l.741.72L8 5.94z"/></symbol><symbol viewBox="0 0 17 26" id="contacts-address"><path d="M8.5 6.094c-1.563 0-2.833 1.366-2.833 3.047 0 1.688 1.268 3.046 2.833 3.046 1.593 0 2.833-1.384 2.833-3.046 0-1.68-1.27-3.047-2.833-3.047z"/><path d="M8.5 0C3.813 0 0 4.1 0 9.14c0 1.703.439 3.365 1.268 4.807L8.016 25.64c.28.485.94.478 1.21-.01l6.576-11.807A9.67 9.67 0 0 0 17 9.141C17 4.1 13.187 0 8.5 0zm0 13.721c-2.377 0-4.26-2.08-4.26-4.58 0-2.52 1.916-4.58 4.26-4.58s4.26 2.06 4.26 4.58c0 2.477-1.857 4.58-4.26 4.58z"/></symbol><symbol viewBox="0 0 31 20" id="contacts-email"><path d="M15.5 12.76L1.398 0h28.204L15.5 12.76zM9.883 9.996L0 18.938V1.053l9.883 8.943z"/><path d="M11.164 11.155L15.5 15.08l4.336-3.924L29.61 20H1.39l9.774-8.845zm9.953-1.159L31 1.053v17.885l-9.883-8.942z"/></symbol><symbol viewBox="0 0 20 20" id="contacts-fio"><path d="M10 0C4.477 0 0 4.477 0 10s4.477 10 10 10 10-4.477 10-10S15.523 0 10 0zm3.341 6.439a1.538 1.538 0 1 1 0 3.077 1.538 1.538 0 0 1 0-3.077zm-6.682 0a1.538 1.538 0 1 1 0 3.077 1.538 1.538 0 0 1 0-3.077zM10 16.264a6.291 6.291 0 0 1-5.88-4.102l1.238-.457A4.968 4.968 0 0 0 10 14.945a4.968 4.968 0 0 0 4.642-3.24l1.237.457A6.291 6.291 0 0 1 10 16.264z"/></symbol><symbol viewBox="0 0 20 20" id="contacts-note"><path d="M20 2c0-1.1-.9-2-2-2H2C.9 0 0 .9 0 2v12c0 1.1.9 2 2 2h14l4 4V2zm-4 10H4v-2h12v2zm0-3H4V7h12v2zm0-3H4V4h12v2z"/></symbol><symbol viewBox="0 0 31 29" id="contacts-tel"><path d="M21.42 15.222c-.06.087-.06.174-.09.29a.715.715 0 0 0 .662.75c.392.03.753-.26.783-.635 0-.087 0-.174.03-.318v-.318a7.35 7.35 0 0 0-.421-2.426c-.362-1.011-.994-1.907-1.748-2.658a7.706 7.706 0 0 0-3.374-1.877 8.317 8.317 0 0 0-1.898-.231c-.21 0-.422 0-.663.029l-.632.086c-.392.058-.663.434-.573.78.06.376.452.636.814.55.18-.03.331-.059.512-.059h.09c.15 0 .302-.029.452-.029 1.657 0 3.194.636 4.278 1.705a5.705 5.705 0 0 1 1.778 4.044v.317z"/><path d="M25.396 15.858a.715.715 0 0 0 .663.75c.392.03.753-.26.784-.635.03-.317.03-.635.03-.953 0-.635-.06-1.242-.151-1.849-.392-2.31-1.567-4.39-3.224-5.979a11.645 11.645 0 0 0-7.23-3.206c-.301-.029-.633-.029-.934-.029a11.643 11.643 0 0 0-1.988.144c-.392.058-.663.434-.573.78.06.376.452.636.814.55.21-.03.391-.059.602-.087.09 0 .181-.03.271-.03.302-.028.603-.028.874-.028 1.024 0 1.988.144 2.922.404 1.627.462 3.073 1.3 4.248 2.426a9.903 9.903 0 0 1 2.26 3.265 9.412 9.412 0 0 1 .723 3.581v.29c-.06.23-.09.404-.09.606z"/><path d="M26.42 4.42C23.56 1.674 19.643 0 15.305 0c-.452 0-.904.029-1.356.058-.452.029-.904.086-1.355.173-.392.058-.663.433-.573.78.06.375.452.635.814.549.21-.03.391-.058.602-.087.211-.029.422-.058.633-.058.422-.029.813-.057 1.235-.057 3.916 0 7.471 1.53 10.062 3.986 2.561 2.455 4.158 5.863 4.158 9.647v.636c0 .173-.03.346-.03.549a.715.715 0 0 0 .662.75c.392.03.754-.26.784-.635.03-.433.06-.866.06-1.27 0-4.131-1.747-7.886-4.58-10.602zm3.465 17.504l-5.332-2.744c-1.778-.924-1.838-.318-3.706 1.589-.452.462-1.295 1.675-2.29 1.444-2.078-.491-5.964-3.408-7.23-4.737-.602-.636-3.193-3.669-3.223-4.65-.06-1.503 3.374-2.254 2.26-5.113L7.983 2.6C5.753-2.31-.483 5.546.03 9.215c1.325 9.04 17.865 23.657 27.084 18.833 2.048-1.098 4.82-4.94 2.771-6.124z"/></symbol><symbol viewBox="0 0 12 15" id="icon-more"><path fill-rule="evenodd" clip-rule="evenodd" d="M10.56 7.5L4 14.259l.72.741L12 7.5 4.72 0 4 .741 10.56 7.5z"/><path fill-rule="evenodd" clip-rule="evenodd" d="M6.56 7.5L0 14.259.72 15 8 7.5.72 0 0 .741 6.56 7.5z"/></symbol><symbol viewBox="0 0 16 17" id="icon-search"><path d="M15.757 15.484l-3.944-4.208a6.949 6.949 0 0 0 1.57-4.412C13.382 3.079 10.38 0 6.69 0 3.001 0 0 3.08 0 6.864s3.002 6.863 6.691 6.863a6.505 6.505 0 0 0 3.834-1.242l3.974 4.24a.856.856 0 0 0 1.234.025.913.913 0 0 0 .024-1.266zM6.69 1.791c2.727 0 4.946 2.275 4.946 5.073 0 2.797-2.219 5.073-4.946 5.073S1.746 9.66 1.746 6.864c0-2.798 2.218-5.073 4.945-5.073z"/></symbol><symbol viewBox="0 0 182 48" fill="none" id="logotip"><path fill-rule="evenodd" clip-rule="evenodd" d="M46.359 0h125.125C177.279 0 182 4.751 182 10.583v26.834C182 43.25 177.279 48 171.484 48H46.359c-5.795 0-10.517-4.751-10.517-10.583v-6.91L22.16 22.838l13.682-8.099v-4.157C35.842 4.75 40.617 0 46.36 0z" fill="#f01f30"/><path fill-rule="evenodd" clip-rule="evenodd" d="M0 11.393C.054 7.613 1.127 2.538 5.097.756 6.063.324 7.03.054 9.067 0h16.634v9.179h-12.18c-2.2.216-3.058 1.404-2.95 3.347v2.916L22.16 22.84l-11.59 6.75v18.303H0v-36.5zm151.739 2.537c-1.664 1.08-2.522 2.484-2.952 4.05-.16.594-.214.486.376.486h5.151c.644-.918 1.502-1.62 2.576-1.89 1.824-.486 5.419.54 5.043 2.916-.268 1.511-2.95 2.051-4.239 2.267-1.395.27-2.736.486-4.131.864-1.77.486-3.005.81-4.024 2.376-1.878 2.861-1.717 7.883 1.448 9.88 4.186 2.646 11.644 1.89 14.863-2.969 1.449-2.214 1.18-3.456 1.18-5.94v-6.586c0-1.674.108-2.214-.858-3.672-.644-.972-1.502-1.62-2.468-2.16-3.488-1.835-8.639-1.781-11.965.378zm9.98 10.205v2.43c0 2.16-.054 3.293-2.147 4.59a5.307 5.307 0 0 1-3.97.647c-1.61-.324-2.683-1.512-2.361-3.618.644-3.941 5.42-2.375 8.478-4.049zm-18.19-10.799c-.966-.864-2.2-1.08-3.595-.864-1.02.162-.805.108-.805 1.134v22.408h5.365V16.468c0-1.458.215-2.052-.965-3.132zm-.054-7.181c-.912-.81-2.092-1.026-3.434-.81-1.02.162-.966 0-.966.918v3.78h5.366c.054-1.674.376-2.7-.966-3.888zm-10.731-.054c-.912-.81-2.039-1.026-3.38-.864-1.235.162-1.02.162-1.02 1.35v8.64c-2.414-3.834-8.585-3.78-11.911-.973-2.522 2.16-3.595 4.806-3.649 8.153-.107 3.618-.107 6.965 1.985 10.043 3.22 4.697 11.429 4.967 15.56 1.458 3.273-2.808 3.38-5.13 3.38-9.18V9.179c0-1.403.215-1.997-.965-3.077zm-9.497 10.745c3.058 0 5.526 3.347 5.526 7.45 0 4.104-2.468 7.452-5.526 7.452-3.059 0-5.527-3.348-5.527-7.451-.053-4.104 2.415-7.451 5.527-7.451zm-29.135 8.747l15.56-.108c.161-6.911-2.575-12.85-9.926-13.337-3.917-.27-6.975.918-9.175 4.266-1.878 2.862-2.147 5.777-1.932 9.125.054.756.161 1.512.268 2.213.698 2.754 1.771 4.698 3.166 6.048 3.917 3.725 10.785 3.563 14.54-.486 1.127-1.188 1.932-2.592 2.523-4.104h-5.044c-4.346 4.698-10.248 1.89-9.98-3.617zm.107-3.888h9.712c-.215-1.62-.805-2.753-1.717-3.617-3.166-2.97-7.673-.324-7.995 3.617zM50.973 20.14l.107 15.873h5.366V20.895c.268-4.535 8.531-5.021 8.424 0v15.119h5.794V20.895c.376-5.075 8.532-4.643 8.478 0V31.37c-.16 3.942 1.77 4.913 4.614 4.59.269-.055.59-.055.805-.163V21.651c0-2.753.43-4.103-1.502-6.263-3.702-4.157-11.75-4.32-15.292-.54-2.575-2.754-7.619-3.401-11.59-1.89-3.54 1.35-5.204 3.348-5.204 7.181z" fill="#fff"/></symbol><symbol viewBox="0 0 371.23 371.23" id="modal-close"><path d="M371.23 21.213L350.018 0 185.615 164.402 21.213 0 0 21.213l164.402 164.402L0 350.018l21.213 21.212 164.402-164.402L350.018 371.23l21.212-21.212-164.402-164.403z"/></symbol><symbol viewBox="0 0 17 9" id="navbar-dropdown"><path fill-rule="evenodd" clip-rule="evenodd" d="M8.5 7.38L.84 0 0 .81 8.5 9 17 .81 16.16 0 8.5 7.38z"/></symbol><symbol viewBox="0 0 57 59" id="navbar-homepage"><path d="M7.355 26.663L28.5 6.875l21.145 19.788V59h-14.71V36.943c0-.981-.796-1.776-1.78-1.776h-9.31c-.983 0-1.78.795-1.78 1.776V59H7.355V26.663z"/><path fill-rule="evenodd" clip-rule="evenodd" d="M28.5 0l27.914 25.913c.743.69.785 1.85.093 2.59a1.842 1.842 0 0 1-2.599.093L28.5 5.01 3.092 28.596a1.843 1.843 0 0 1-2.599-.092 1.83 1.83 0 0 1 .093-2.591L28.5 0z"/><path d="M38.613 6.171v3.667l7.355 7.333v-11h-7.355z"/></symbol><symbol viewBox="0 0 34 59" id="navbar-projects"><path fill-rule="evenodd" clip-rule="evenodd" d="M0 29a2 2 0 1 1 4 0v6c0 7.168 5.832 13 13 13s13-5.832 13-13v-6a2 2 0 1 1 4 0v6c0 8.698-6.568 15.869-15 16.863V55h4a2 2 0 1 1 0 4H11a2 2 0 1 1 0-4h4v-3.137C6.568 50.869 0 43.699 0 35v-6zm16.837 21l.163.01.163-.01a14.825 14.825 0 0 1-.326 0z"/><path d="M17 46c6.065 0 11-4.935 11-11V11c0-6.065-4.935-11-11-11S6 4.935 6 11v24c0 6.065 4.935 11 11 11z"/></symbol><symbol viewBox="0 0 7 13" id="pagin-next"><path d="M6.892 6.76L.641 12.891a.379.379 0 0 1-.53 0 .362.362 0 0 1 0-.52L6.094 6.5.11.63a.362.362 0 0 1 0-.521A.38.38 0 0 1 .374 0a.37.37 0 0 1 .264.109l6.251 6.133a.361.361 0 0 1 .003.517z"/></symbol><symbol viewBox="0 0 7 13" id="pagin-prev"><path d="M.108 6.76l6.251 6.132a.379.379 0 0 0 .53 0 .362.362 0 0 0 0-.52L.906 6.5 6.89.63a.362.362 0 0 0 0-.521A.381.381 0 0 0 6.626 0a.37.37 0 0 0-.264.109L.111 6.242a.361.361 0 0 0-.003.517z"/></symbol><symbol viewBox="0 0 40 72" id="slick-left"><path fill-rule="evenodd" clip-rule="evenodd" d="M7.07 35.768L39.303 68l-3.536 3.536L0 35.768 35.767 0l3.536 3.536L7.07 35.768z"/></symbol><symbol viewBox="0 0 40 72" id="slick-right"><path fill-rule="evenodd" clip-rule="evenodd" d="M32.232 35.768L0 3.536 3.536 0l35.767 35.768L3.536 71.535 0 68l32.232-32.232z"/></symbol><symbol viewBox="0 0 25 24" id="soc-inst"><path d="M21.174 0H3.326C1.492 0 0 1.462 0 3.259V20.74C0 22.538 1.492 24 3.326 24h17.848c1.834 0 3.326-1.462 3.326-3.259V3.26C24.5 1.462 23.008 0 21.174 0zM12.25 17.863c-3.021 0-5.48-2.408-5.48-5.367 0-2.96 2.459-5.368 5.48-5.368 3.021 0 5.48 2.408 5.48 5.368 0 2.96-2.459 5.367-5.48 5.367zm10.176-9.33h-4.95a6.852 6.852 0 0 0-5.226-2.399 6.852 6.852 0 0 0-5.225 2.4h-4.95v-4.66c0-1.185.983-2.149 2.192-2.149h15.966c1.209 0 2.193.964 2.193 2.148v4.66z"/><path d="M12.25 9.045c-1.942 0-3.522 1.548-3.522 3.45 0 1.903 1.58 3.451 3.522 3.451 1.942 0 3.522-1.548 3.522-3.45 0-1.903-1.58-3.45-3.522-3.45zm7.476-5.942h-2.12a.87.87 0 0 0-.879.86V6.04c0 .475.394.86.879.86h2.12a.87.87 0 0 0 .878-.86V3.963a.87.87 0 0 0-.878-.86z"/></symbol><symbol viewBox="0 0 25 24" id="soc-vk"><path fill-rule="evenodd" clip-rule="evenodd" d="M3.5 0a3 3 0 0 0-3 3v18a3 3 0 0 0 3 3H22a3 3 0 0 0 3-3V3a3 3 0 0 0-3-3H3.5zm18.421 16.662c.02.03.04.067.063.11.023.045.046.124.069.236a.629.629 0 0 1-.005.302c-.026.088-.107.17-.243.243-.136.074-.328.111-.574.111l-2.488.036a1.199 1.199 0 0 1-.544-.045 2.48 2.48 0 0 1-.505-.195l-.195-.107a4.425 4.425 0 0 1-.68-.567 16.43 16.43 0 0 1-.666-.686 3.107 3.107 0 0 0-.593-.515c-.21-.139-.393-.185-.549-.137a.663.663 0 0 0-.077.03.858.858 0 0 0-.166.13 1.15 1.15 0 0 0-.209.26 1.705 1.705 0 0 0-.165.462 2.68 2.68 0 0 0-.063.687c0 .088-.011.17-.034.243a.561.561 0 0 1-.073.164l-.039.045c-.116.112-.288.177-.515.195h-1.117a4.816 4.816 0 0 1-1.42-.147 5.747 5.747 0 0 1-1.278-.47c-.366-.192-.7-.386-1-.585a5.652 5.652 0 0 1-.686-.51l-.243-.212a6.034 6.034 0 0 1-.267-.266 20.077 20.077 0 0 1-.695-.806c-.35-.42-.693-.866-1.03-1.34a26.71 26.71 0 0 1-1.19-1.87 28.238 28.238 0 0 1-1.269-2.411.652.652 0 0 1-.058-.24c0-.064.01-.112.029-.141l.039-.053c.097-.113.282-.169.554-.169l2.663-.017c.078.011.152.03.223.057a.678.678 0 0 1 .156.076l.048.026c.104.065.182.16.234.284.13.295.278.601.447.918.168.316.301.556.398.722l.156.257c.188.355.369.662.544.922.175.26.332.462.471.607.14.145.274.259.404.341.13.083.24.125.33.125.09 0 .178-.015.262-.045a.165.165 0 0 0 .049-.044c.02-.024.058-.088.117-.195.058-.106.102-.245.13-.416.03-.172.06-.412.093-.719a6.307 6.307 0 0 0 0-1.108 3.769 3.769 0 0 0-.087-.647 1.594 1.594 0 0 0-.136-.408l-.059-.106c-.162-.201-.437-.328-.826-.381-.084-.012-.068-.083.049-.213.11-.112.233-.201.37-.266.343-.153 1.117-.225 2.322-.213.531.006.969.044 1.312.116.13.029.238.069.326.12.087.05.154.12.2.212.044.092.078.186.1.283.023.098.035.233.035.404 0 .172-.003.334-.01.488l-.024.624c-.01.264-.015.507-.015.732 0 .065-.003.189-.01.372a6.838 6.838 0 0 0-.004.426c.003.1.014.22.034.359.02.139.056.254.112.345a.611.611 0 0 0 .218.218l.165.035c.059.012.143-.02.253-.097.11-.078.233-.179.37-.306.135-.127.304-.325.505-.594.2-.269.42-.587.66-.953a13.98 13.98 0 0 0 1.04-1.994.604.604 0 0 1 .098-.156.413.413 0 0 1 .107-.093l.038-.026.05-.022.125-.027a.399.399 0 0 1 .195-.005l2.799-.017c.253-.03.46-.023.622.022.162.044.262.093.301.146l.058.089c.15.378-.337 1.246-1.458 2.606a53.3 53.3 0 0 1-.632.753c-.505.591-.797.978-.874 1.162-.11.242-.065.481.136.717.11.125.373.367.787.728h.01l.01.009.01.008.019.018c.913.774 1.532 1.427 1.856 1.96z"/></symbol><symbol viewBox="0 0 38 38" id="view"><path d="M14.771 0C6.614 0 0 6.613 0 14.77c0 8.155 6.614 14.768 14.771 14.768a14.71 14.71 0 0 0 8.438-2.644v-.002l10.955 10.954a.515.515 0 0 0 .735 0l2.952-2.952a.529.529 0 0 0 0-.736L26.898 23.207a14.714 14.714 0 0 0 2.645-8.438C29.543 6.613 22.929 0 14.77 0zm0 26.063c-6.238 0-11.295-5.056-11.295-11.294S8.533 3.475 14.77 3.475c6.24 0 11.296 5.056 11.296 11.294S21.01 26.063 14.771 26.063z"/><path d="M15.64 8.688h-1.737V13.9H8.689v1.738h5.214v5.213h1.738v-5.213h5.213V13.9h-5.213V8.688z"/></symbol></svg>