<svg version="1" xmlns="http://www.w3.org/2000/svg" width="346.667" height="346.667" viewBox="0 0 260.000000 260.000000"><path d="M113 3.6c-4.8 4.4-9 12.8-12 24.4-1.9 7.2-2.3 11.9-2.7 31l-.5 22.5L87 102.8l-10.8 21.3 10.6 19.2 10.7 19.2.6 30c.7 31.7 1.4 37.1 6.9 51.7 2.2 6 8.4 13.2 12.6 14.8 1.5.6 30.1 1 72.5 1H260V0H117l-4 3.6zm57.3 68.2c3.4 1.7 7.5 4.5 9.1 6.1l2.9 3.1 2.3-3.4c1.4-2.1 4.6-4.5 8.1-6.2 7.4-3.6 21.8-4.6 30.6-2 10.7 3.1 18.8 11.8 22.7 24.3 1.9 6.1 2 9.3 2 52.3v45.8l-2.9.7c-6 1.3-14.2-2.5-17.4-8-.8-1.4-1.4-13.6-1.7-39-.5-35.9-.6-37.1-2.8-41.5-3.3-6.6-6.4-8.5-14-8.5-6.1 0-6.5.1-10.2 4.1-5.7 6.1-6 9-6 53.9V193h-21.9l-.3-42.8c-.3-39.4-.4-43-2.2-46.5-5.8-11.7-22.4-11.3-28.6.8l-2.5 4.9-.3 41.8-.3 41.8H116v-48.5c0-46.4.1-48.7 2.1-53.9 7.2-19.5 32.4-28.5 52.2-18.8zM24 5.3C16.6 7.7 9.6 17.6 5.4 31.5c-1.7 5.6-1.8 13.4-2.1 115.7L2.9 257H38v-48.3l-.1-48.2 18.8-18.2 18.8-18.2-18.7-18.8L38 86.5V73.7C38 60 39.2 55 42.8 53.1c1.3-.7 10.1-1.1 23.6-1.1H88V4l-30.2.1c-19.2.1-31.6.5-33.8 1.2z"/></svg>