<svg width="20" height="20" viewBox="0 0 20 20" xmlns="http://www.w3.org/2000/svg">
<g>
<path d="M10 0C4.47714 0 0 4.47714 0 10C0 15.5229 4.47714 20 10 20C15.5229 20 20 15.5229 20 10C20 4.47714 15.5229 0 10 0ZM13.3413 6.43894C14.1909 6.43894 14.8797 7.12774 14.8797 7.97741C14.8797 8.82708 14.1909 9.51587 13.3413 9.51587C12.4916 9.51587 11.8028 8.82708 11.8028 7.97741C11.8028 7.12774 12.4916 6.43894 13.3413 6.43894ZM6.65872 6.43894C7.5084 6.43894 8.19719 7.12774 8.19719 7.97741C8.19719 8.82708 7.5084 9.51587 6.65872 9.51587C5.80905 9.51587 5.12026 8.82708 5.12026 7.97741C5.12026 7.12774 5.80905 6.43894 6.65872 6.43894ZM10 16.2637C7.38813 16.2637 5.02545 14.6152 4.12079 12.1615L5.35807 11.7054C6.07253 13.6431 7.93798 14.9451 10 14.9451C12.062 14.9451 13.9275 13.6431 14.6419 11.7054L15.8792 12.1615C14.9746 14.6152 12.6119 16.2637 10 16.2637Z"/>
</g>
</svg>
