<svg width="31" height="29" viewBox="0 0 31 29" xmlns="http://www.w3.org/2000/svg">
<path d="M7.94077 7.42348C7.88051 7.51014 7.88052 7.5968 7.85039 7.71234C7.82026 8.08784 8.12153 8.43447 8.51318 8.46335C8.90482 8.49224 9.26634 8.20338 9.29647 7.82788C9.29647 7.74122 9.29647 7.65457 9.3266 7.51014C9.3266 7.36571 9.3266 7.27906 9.3266 7.1924C9.3266 6.35473 9.17596 5.54595 8.90482 4.76605C8.5433 3.75507 7.91064 2.85963 7.15747 2.10862C6.22355 1.21318 5.07873 0.577703 3.78329 0.231081C3.18075 0.0866557 2.51796 -1.19003e-07 1.8853 -1.19003e-07C1.67442 -1.19003e-07 1.46353 -8.60845e-09 1.22252 0.0288851C1.01163 0.0577703 0.800743 0.0866552 0.589856 0.11554C0.198209 0.173311 -0.0729304 0.548818 0.0174497 0.89544C0.0777031 1.27095 0.469349 1.53091 0.830869 1.44426C1.01163 1.41537 1.16226 1.38649 1.34302 1.38649C1.37315 1.38649 1.40328 1.38649 1.4334 1.38649C1.58404 1.38649 1.73467 1.3576 1.8853 1.3576C3.54227 1.3576 5.07873 1.99308 6.16329 3.06183C7.24786 4.10169 7.91064 5.51706 7.94077 7.10575V7.16352C7.94077 7.27906 7.94077 7.36571 7.94077 7.42348Z" transform="translate(13.4789 7.79883)"/>
<path d="M12.6405 11.9007C12.6104 12.2762 12.9117 12.6228 13.3033 12.6517C13.695 12.6806 14.0565 12.3917 14.0866 12.0162C14.1167 11.6985 14.1167 11.3808 14.1167 11.063C14.1167 10.4275 14.0565 9.82095 13.9661 9.21436C13.5745 6.90355 12.3995 4.82382 10.7425 3.23514C8.84457 1.41537 6.31393 0.231081 3.51214 0.0288851C3.21088 -6.45633e-08 2.87948 1.01373e-07 2.57822 1.01373e-07C2.24682 1.01373e-07 1.91543 -6.45633e-08 1.58404 0.0288851C1.25264 0.0577702 0.92125 0.0866556 0.589857 0.144426C0.19821 0.202196 -0.0729308 0.577703 0.0174492 0.924325C0.0777026 1.29983 0.46935 1.5598 0.83087 1.47314C1.04176 1.44426 1.22252 1.41537 1.4334 1.38649C1.52378 1.38649 1.61416 1.3576 1.70454 1.3576C2.00581 1.32872 2.30708 1.32872 2.57822 1.32872C3.60252 1.32872 4.56658 1.47314 5.50051 1.73311C7.12735 2.19527 8.57343 3.03294 9.74837 4.15946C10.7124 5.08379 11.4957 6.21031 12.0079 7.42348C12.4598 8.52112 12.7309 9.7343 12.7309 11.0052C12.7309 11.0919 12.7309 11.2074 12.7309 11.2941C12.6707 11.5252 12.6405 11.6985 12.6405 11.9007Z" transform="translate(12.7559 3.95703)"/>
<path d="M14.418 4.41943C11.556 1.67534 7.6395 -1.57018e-08 3.30126 -1.57018e-08C2.84936 -1.57018e-08 2.39746 0.0288851 1.94556 0.0577703C1.49366 0.0866555 1.04176 0.144426 0.589857 0.231081C0.19821 0.288852 -0.0729309 0.664358 0.0174492 1.01098C0.0777026 1.38649 0.46935 1.64645 0.83087 1.5598C1.04176 1.53091 1.22252 1.50203 1.4334 1.47314C1.64429 1.44426 1.85518 1.41537 2.06606 1.41537C2.48784 1.38649 2.87949 1.3576 3.30126 1.3576C7.21773 1.3576 10.7727 2.88852 13.3636 5.34375C15.9243 7.79899 17.5211 11.2074 17.5211 14.9914C17.5211 15.1936 17.5211 15.4247 17.5211 15.6269C17.5211 15.8002 17.4909 15.9735 17.4909 16.1757C17.4608 16.5512 17.7621 16.8978 18.1537 16.9267C18.5454 16.9556 18.9069 16.6667 18.937 16.2912C18.9671 15.8579 18.9973 15.4247 18.9973 15.0203C18.9973 10.8897 17.2499 7.13463 14.418 4.41943Z" transform="translate(12.0027)"/>
<path d="M29.8853 20.8929L24.5529 18.1488C22.7754 17.2245 22.7152 17.8311 20.8473 19.7375C20.3954 20.1996 19.5519 21.4128 18.5577 21.1817C16.4789 20.6907 12.5926 17.7733 11.3273 16.4446C10.7247 15.8091 8.13385 12.7762 8.10372 11.7941C8.04347 10.292 11.4779 9.54103 10.3632 6.6814L7.98321 1.56873C5.75384 -3.34175 -0.482386 4.51501 0.0297677 8.18343C1.35534 17.2245 17.8949 31.8404 27.1137 27.0165C29.1623 25.9189 31.9339 22.0772 29.8853 20.8929Z" transform="translate(0 1.03125)"/>
</svg>
