<svg width="17" height="26" viewBox="0 0 17 26" xmlns="http://www.w3.org/2000/svg">
<path d="M2.83333 0C1.2707 0 0 1.36647 0 3.04688C0 4.7353 1.26844 6.09375 2.83333 6.09375C4.42628 6.09375 5.66667 4.70971 5.66667 3.04688C5.66667 1.36647 4.39596 0 2.83333 0Z" transform="translate(5.66675 6.09375)"/>
<path d="M8.5 0C3.81282 0 0 4.10018 0 9.14063C0 10.8433 0.438553 12.5051 1.26796 13.9468L8.01583 25.6396C8.29562 26.1255 8.95532 26.1181 9.22637 25.6292L15.802 13.8233C16.585 12.4122 17 10.7927 17 9.14063C17 4.10018 13.1872 0 8.5 0ZM8.5 13.7211C6.1226 13.7211 4.24056 11.6401 4.24056 9.14063C4.24056 6.6204 6.15641 4.56016 8.5 4.56016C10.8436 4.56016 12.7594 6.6204 12.7594 9.14063C12.7594 11.6181 10.9027 13.7211 8.5 13.7211Z"/>
</svg>
