<svg width="182" height="48" viewBox="0 0 182 48" fill="none" xmlns="http://www.w3.org/2000/svg">
<path fill-rule="evenodd" clip-rule="evenodd" d="M24.1987 0H149.324C155.119 0 159.84 4.75141 159.84 10.5827V37.4173C159.84 43.2486 155.119 48 149.324 48H24.1987C18.4039 48 13.6822 43.2486 13.6822 37.4173V30.5062L-4.0936e-07 22.8391L13.6822 14.7402V10.5827C13.6822 4.75141 18.4575 0 24.1987 0Z" transform="translate(22.1599)" fill="#f01f30"/>
<path fill-rule="evenodd" clip-rule="evenodd" d="M0 11.3926C0.0536557 7.61305 1.12677 2.53768 5.09729 0.755906C6.06309 0.323959 7.02889 0.0539933 9.06781 0H25.7011V9.17885C24.7353 9.17885 21.2476 9.17885 18.2429 9.17885C16.1504 9.17885 14.2188 9.17885 13.5212 9.17885C11.3213 9.39483 10.4629 10.5827 10.5702 12.5264V15.4421L22.1598 22.8391L10.5702 29.5883V47.892H0V11.3926Z" fill="white"/>
<path fill-rule="evenodd" clip-rule="evenodd" d="M3.41555 1.69167C1.75222 2.77154 0.893734 4.17536 0.464489 5.74116C0.303522 6.33509 0.249873 6.2271 0.840085 6.2271C2.55707 6.2271 4.27405 6.2271 5.99103 6.2271C6.6349 5.30922 7.49338 4.60731 8.5665 4.33734C10.3908 3.8514 13.9857 4.87727 13.6101 7.25297C13.3418 8.76479 10.6591 9.30472 9.37133 9.52069C7.97628 9.79066 6.6349 10.0066 5.23986 10.3846C3.46922 10.8705 2.23514 11.1945 1.21568 12.7603C-0.662267 15.6219 -0.50131 20.6433 2.66437 22.6411C6.84952 25.2867 14.3077 24.5308 17.527 19.6714C18.9757 17.4577 18.7074 16.2159 18.7074 13.7322C18.7074 11.5184 18.7074 9.4667 18.7074 7.14499C18.7074 5.4712 18.8147 4.93127 17.8489 3.47345C17.2051 2.50157 16.3466 1.85365 15.3808 1.31372C11.8932 -0.522052 6.7422 -0.468059 3.41555 1.69167ZM13.3955 11.8964C13.3955 12.7063 13.3955 13.5162 13.3955 14.3261C13.3955 16.4858 13.3419 17.6197 11.2493 18.9155C10.1225 19.6174 8.67381 19.8874 7.27876 19.5634C5.66909 19.2395 4.59598 18.0516 4.91792 15.9459C5.56179 12.0044 10.3371 13.5702 13.3955 11.8964Z" transform="translate(148.323 12.2386)" fill="white"/>
<path fill-rule="evenodd" clip-rule="evenodd" d="M4.41861 0.94179C3.4528 0.0778975 2.21872 -0.138076 0.82367 0.0778973C-0.195787 0.239877 0.0188355 0.185884 0.0188355 1.21176V23.619H5.3844V4.0734C5.3844 2.61558 5.59903 2.02165 4.41861 0.94179Z" transform="translate(139.11 12.3945)" fill="white"/>
<path fill-rule="evenodd" clip-rule="evenodd" d="M4.40025 0.88852C3.4881 0.0786216 2.30768 -0.137351 0.966289 0.0786216C-0.053169 0.240601 0.000493222 0.078622 0.000493222 0.996507V4.77603H5.36606C5.41972 3.10224 5.74164 2.07637 4.40025 0.88852Z" transform="translate(139.075 5.26672)" fill="white"/>
<path fill-rule="evenodd" clip-rule="evenodd" d="M19.9959 0.914006C19.0837 0.104107 17.957 -0.111866 16.6156 0.0501139C15.3815 0.212094 15.5961 0.212094 15.5961 1.39995C15.5961 4.1536 15.5961 7.17722 15.5961 10.0389C13.1816 6.20534 7.01121 6.25934 3.68455 9.06699C1.16274 11.2267 0.0896239 13.8724 0.0359682 17.22C-0.0713431 20.8375 -0.0713448 24.1851 2.02123 27.2627C5.24057 31.9601 13.4499 32.2301 17.5814 28.7205C20.8544 25.9129 20.9617 23.5912 20.9617 19.5417C20.9617 14.5743 20.9617 8.959 20.9617 3.99162C20.9617 2.5878 21.1763 1.99387 19.9959 0.914006ZM10.4988 11.6587C13.5572 11.6587 16.0254 15.0062 16.0254 19.1097C16.0254 23.2132 13.5572 26.5608 10.4988 26.5608C7.44045 26.5608 4.97229 23.2132 4.97229 19.1097C4.91863 15.0062 7.38679 11.6587 10.4988 11.6587Z" transform="translate(112.748 5.18721)" fill="white"/>
<path fill-rule="evenodd" clip-rule="evenodd" d="M5.53528 13.4813L21.0954 13.3733C21.2564 6.46215 18.52 0.522895 11.1691 0.036956C7.25226 -0.23301 4.19389 0.954841 1.99401 4.30242C0.116064 7.16406 -0.152217 10.0797 0.0624052 13.4273C0.116061 14.1832 0.223372 14.9391 0.330684 15.641C1.02821 18.3947 2.10133 20.3384 3.49637 21.6882C7.41324 25.4138 14.2812 25.2518 18.0371 21.2023C19.1638 20.0145 19.9687 18.6106 20.5589 17.0988C18.8955 17.0988 17.1786 17.0988 15.5152 17.0988C11.1691 21.7962 5.267 18.9886 5.53528 13.4813ZM5.6426 9.59376C8.86194 9.59376 12.0813 9.59376 15.3543 9.59376C15.1396 7.97396 14.5494 6.84011 13.6373 5.97621C10.4716 3.00658 5.96453 5.65225 5.6426 9.59376Z" transform="translate(88.5767 12.1115)" fill="white"/>
<path fill-rule="evenodd" clip-rule="evenodd" d="M0 8.00357L0.10731 23.8776H5.47288C5.47288 18.9102 5.47288 13.7269 5.47288 8.75948C5.74115 4.22404 14.0041 3.7381 13.8968 8.75948V23.8776H19.6916V8.75948C20.0672 3.68411 28.2229 4.11606 28.1692 8.75948C28.1692 12.269 28.1692 15.7786 28.1692 19.2342C28.0083 23.1757 29.9399 24.1476 32.7836 23.8236C33.0519 23.7696 33.3738 23.7696 33.5885 23.6616V9.51538C33.5885 6.76172 34.0177 5.41189 32.0861 3.25216C28.3838 -0.905316 20.3355 -1.0673 16.7942 2.71223C14.2188 -0.041424 9.17512 -0.689343 5.2046 0.822468C1.66332 2.1723 0 4.17005 0 8.00357Z" transform="translate(50.9729 12.1359)" fill="white"/>
</svg>
