<svg width="182" height="69" viewBox="0 0 182 69" fill="none" xmlns="http://www.w3.org/2000/svg">
<path d="M39.8689 54.8057C40.4969 54.8057 41.0771 54.8534 41.6096 54.9647C42.1421 55.076 42.6031 55.2668 43.0006 55.5371C43.39 55.8075 43.7 56.1573 43.9226 56.6026C44.1531 57.0478 44.2643 57.5964 44.2643 58.2643C44.2643 58.9242 44.1531 59.4728 43.9226 59.9181C43.7 60.3633 43.39 60.7132 43.0006 60.9755C42.6031 61.2379 42.1421 61.4287 41.6096 61.548C41.0771 61.6593 40.4969 61.7229 39.8689 61.7229H38.5416V64.8874H35.8789V54.8057H39.8689ZM41.5301 58.2643C41.5301 58.0337 41.4904 57.8429 41.403 57.6918C41.3235 57.5408 41.2122 57.4215 41.0691 57.342C40.9261 57.2545 40.7591 57.1909 40.5763 57.1591C40.3935 57.1273 40.2028 57.1114 39.9961 57.1114H38.5416V59.4172H39.9961C40.2028 59.4172 40.3935 59.3933 40.5763 59.3615C40.7591 59.3297 40.9261 59.2661 41.0691 59.1866C41.2122 59.0991 41.3235 58.9799 41.403 58.8288C41.4904 58.6777 41.5301 58.4949 41.5301 58.2643ZM51.537 62.9155C51.537 63.0825 51.5847 63.1938 51.688 63.2574C51.7834 63.3131 51.8947 63.3449 52.0139 63.3449C52.1093 63.3449 52.2047 63.3369 52.2921 63.3051V64.8158C52.1252 64.8874 51.9344 64.9351 51.7198 64.9748C51.5052 65.0146 51.2827 65.0305 51.0522 65.0305C50.2812 65.0305 49.7327 64.7761 49.4069 64.2672C49.073 64.5296 48.7074 64.7363 48.3179 64.8794C47.9285 65.0305 47.4913 65.11 46.9985 65.11C46.6647 65.11 46.3547 65.0623 46.0686 64.9589C45.7745 64.8635 45.5202 64.7283 45.3056 64.5455C45.083 64.3626 44.9081 64.14 44.781 63.8776C44.6617 63.6073 44.5982 63.3131 44.5982 62.9712C44.5982 62.5419 44.6935 62.1761 44.8763 61.8819C45.0671 61.5957 45.3056 61.3572 45.5917 61.1823C45.8778 60.9994 46.2037 60.8801 46.5534 60.8006C46.9111 60.7291 47.2529 60.6973 47.5947 60.6973C48.1113 60.6973 48.612 60.7529 49.0889 60.8563V60.6098C49.0889 60.3633 48.9697 60.1566 48.7392 59.9896C48.5008 59.8306 48.1431 59.7432 47.6503 59.7432C47.1893 59.7432 46.7521 59.7988 46.3468 59.9101C45.9414 60.0214 45.5678 60.1407 45.2261 60.2759V58.2166C45.3771 58.1689 45.544 58.1212 45.7507 58.0655C45.9494 58.0099 46.1719 57.9622 46.4104 57.9145C46.6488 57.8667 46.8952 57.827 47.1496 57.8031C47.4118 57.7713 47.6662 57.7554 47.9205 57.7554C48.469 57.7554 48.9697 57.8111 49.4148 57.9145C49.8599 58.0178 50.2414 58.2007 50.5594 58.4472C50.8773 58.7016 51.1237 59.0276 51.2906 59.441C51.4575 59.8545 51.537 60.3713 51.537 60.9835V62.9155ZM47.1178 62.7724C47.1178 62.9553 47.1893 63.1143 47.3403 63.2495C47.4913 63.3847 47.69 63.4483 47.9523 63.4483C48.151 63.4483 48.3497 63.4244 48.5326 63.3687C48.7154 63.3131 48.8982 63.2256 49.0889 63.0905V62.1523C48.9856 62.1125 48.8505 62.0807 48.6915 62.0569C48.5326 62.033 48.3736 62.0251 48.2146 62.0251C47.9205 62.0251 47.6662 62.0807 47.4516 62.1841C47.229 62.2954 47.1178 62.4942 47.1178 62.7724ZM52.8246 66.6922V63.0905H53.8182C54.2235 62.3908 54.4779 61.6116 54.5971 60.7529C54.7084 59.9022 54.756 58.9719 54.7243 57.9701H60.7014V63.0905H61.7585V66.6922H59.525V64.8874H55.0581V66.6922H52.8246ZM56.9577 59.775C56.9418 60.4587 56.8862 61.055 56.7908 61.5719C56.7034 62.0807 56.5444 62.5896 56.3219 63.0905H58.2533V59.775H56.9577ZM62.8235 64.8874V57.9701H65.2716V61.2459L67.7356 57.9701H69.8816V64.8874H67.4335V61.6196L64.9696 64.8874H62.8235ZM71.0023 61.4287C71.0023 60.8165 71.1136 60.2838 71.3202 59.8227C71.5348 59.3695 71.813 58.9878 72.1707 58.6777C72.5284 58.3677 72.9417 58.1371 73.4106 57.986C73.8796 57.8349 74.3724 57.7554 74.897 57.7554C75.4136 57.7554 75.9064 57.8349 76.3753 57.986C76.8522 58.1371 77.2655 58.3677 77.6153 58.6777C77.9729 58.9878 78.2591 59.3695 78.4657 59.8227C78.6803 60.2838 78.7837 60.8165 78.7837 61.4287C78.7837 62.0489 78.6803 62.5816 78.4657 63.0348C78.2591 63.496 77.9729 63.8776 77.6153 64.1877C77.2655 64.4898 76.8522 64.7204 76.3753 64.8794C75.9064 65.0305 75.4136 65.11 74.897 65.11C74.3724 65.11 73.8796 65.0305 73.4106 64.8794C72.9417 64.7204 72.5284 64.4898 72.1707 64.1877C71.813 63.8776 71.5348 63.496 71.3202 63.0348C71.1136 62.5816 71.0023 62.0489 71.0023 61.4287ZM76.2641 61.4287C76.2641 61.2379 76.2402 61.055 76.1925 60.8722C76.1448 60.6893 76.0654 60.5223 75.9541 60.3872C75.8428 60.2441 75.6997 60.1327 75.5249 60.0453C75.358 59.9578 75.1434 59.9181 74.897 59.9181C74.6426 59.9181 74.428 59.9578 74.2532 60.0453C74.0783 60.1327 73.9352 60.2441 73.8319 60.3872C73.7206 60.5223 73.6491 60.6893 73.6014 60.8722C73.5537 61.055 73.5299 61.2379 73.5299 61.4287C73.5299 61.6196 73.5537 61.8104 73.6014 61.9932C73.6491 62.1761 73.7206 62.3351 73.8319 62.4783C73.9352 62.6134 74.0783 62.7247 74.2532 62.8122C74.428 62.8996 74.6426 62.9474 74.897 62.9474C75.1434 62.9474 75.358 62.8996 75.5249 62.8122C75.6997 62.7247 75.8428 62.6134 75.9541 62.4783C76.0654 62.3351 76.1448 62.1761 76.1925 61.9932C76.2402 61.8104 76.2641 61.6196 76.2641 61.4287ZM82.6068 63.6788C82.6068 63.9333 82.567 64.14 82.4876 64.3229C82.4081 64.4978 82.3047 64.6488 82.1696 64.7602C82.0345 64.8794 81.8835 64.9589 81.7007 65.0225C81.5258 65.0782 81.3351 65.11 81.1364 65.11C80.9376 65.11 80.7548 65.0782 80.58 65.0225C80.3972 64.9589 80.2461 64.8794 80.111 64.7602C79.9759 64.6488 79.8646 64.4978 79.7851 64.3229C79.7057 64.14 79.6659 63.9333 79.6659 63.6788C79.6659 63.4403 79.7057 63.2336 79.7851 63.0507C79.8646 62.8758 79.9759 62.7247 80.111 62.6134C80.2461 62.4942 80.3972 62.4146 80.58 62.351C80.7548 62.2954 80.9376 62.2636 81.1364 62.2636C81.3351 62.2636 81.5258 62.2954 81.7007 62.351C81.8835 62.4146 82.0345 62.4942 82.1696 62.6134C82.3047 62.7247 82.4081 62.8758 82.4876 63.0507C82.567 63.2336 82.6068 63.4403 82.6068 63.6788ZM98.2331 54.8057V64.8874H95.5704V59.5285L93.4085 62.844H91.8824L89.7205 59.5126V64.8874H87.0578V54.8057H89.5774L92.6454 59.5285L95.7135 54.8057H98.2331ZM99.8466 64.8874V57.9701H102.295V60.419H104.457V57.9701H106.905V64.8874H104.457V62.4385H102.295V64.8874H99.8466ZM108.033 61.4287C108.033 60.8165 108.137 60.2838 108.351 59.8227C108.558 59.3695 108.844 58.9878 109.202 58.6777C109.551 58.3677 109.965 58.1371 110.442 57.986C110.911 57.8349 111.403 57.7554 111.92 57.7554C112.437 57.7554 112.937 57.8349 113.406 57.986C113.875 58.1371 114.289 58.3677 114.646 58.6777C115.004 58.9878 115.282 59.3695 115.497 59.8227C115.703 60.2838 115.815 60.8165 115.815 61.4287C115.815 62.0489 115.703 62.5816 115.497 63.0348C115.282 63.496 115.004 63.8776 114.646 64.1877C114.289 64.4898 113.875 64.7204 113.406 64.8794C112.937 65.0305 112.437 65.11 111.92 65.11C111.403 65.11 110.911 65.0305 110.442 64.8794C109.965 64.7204 109.551 64.4898 109.202 64.1877C108.844 63.8776 108.558 63.496 108.351 63.0348C108.137 62.5816 108.033 62.0489 108.033 61.4287ZM113.287 61.4287C113.287 61.2379 113.263 61.055 113.216 60.8722C113.168 60.6893 113.088 60.5223 112.977 60.3872C112.874 60.2441 112.731 60.1327 112.556 60.0453C112.381 59.9578 112.174 59.9181 111.92 59.9181C111.674 59.9181 111.459 59.9578 111.284 60.0453C111.101 60.1327 110.958 60.2441 110.855 60.3872C110.752 60.5223 110.672 60.6893 110.624 60.8722C110.577 61.055 110.553 61.2379 110.553 61.4287C110.553 61.6196 110.577 61.8104 110.624 61.9932C110.672 62.1761 110.752 62.3351 110.855 62.4783C110.958 62.6134 111.101 62.7247 111.284 62.8122C111.459 62.8996 111.674 62.9474 111.92 62.9474C112.174 62.9474 112.381 62.8996 112.556 62.8122C112.731 62.7247 112.874 62.6134 112.977 62.4783C113.088 62.3351 113.168 62.1761 113.216 61.9932C113.263 61.8104 113.287 61.6196 113.287 61.4287ZM116.935 64.8874V57.9701H122.324V59.9896H119.383V64.8874H116.935ZM122.769 61.4287C122.769 60.8165 122.873 60.2838 123.087 59.8227C123.302 59.3695 123.58 58.9878 123.938 58.6777C124.295 58.3677 124.709 58.1371 125.178 57.986C125.647 57.8349 126.139 57.7554 126.664 57.7554C127.181 57.7554 127.673 57.8349 128.142 57.986C128.611 58.1371 129.025 58.3677 129.382 58.6777C129.74 58.9878 130.026 59.3695 130.233 59.8227C130.447 60.2838 130.551 60.8165 130.551 61.4287C130.551 62.0489 130.447 62.5816 130.233 63.0348C130.026 63.496 129.74 63.8776 129.382 64.1877C129.025 64.4898 128.611 64.7204 128.142 64.8794C127.673 65.0305 127.181 65.11 126.664 65.11C126.139 65.11 125.647 65.0305 125.178 64.8794C124.709 64.7204 124.295 64.4898 123.938 64.1877C123.58 63.8776 123.302 63.496 123.087 63.0348C122.873 62.5816 122.769 62.0489 122.769 61.4287ZM128.031 61.4287C128.031 61.2379 128.007 61.055 127.96 60.8722C127.912 60.6893 127.832 60.5223 127.721 60.3872C127.61 60.2441 127.467 60.1327 127.292 60.0453C127.125 59.9578 126.91 59.9181 126.664 59.9181C126.41 59.9181 126.195 59.9578 126.02 60.0453C125.845 60.1327 125.702 60.2441 125.591 60.3872C125.488 60.5223 125.408 60.6893 125.361 60.8722C125.313 61.055 125.289 61.2379 125.289 61.4287C125.289 61.6196 125.313 61.8104 125.361 61.9932C125.408 62.1761 125.488 62.3351 125.591 62.4783C125.702 62.6134 125.845 62.7247 126.02 62.8122C126.195 62.8996 126.41 62.9474 126.664 62.9474C126.91 62.9474 127.125 62.8996 127.292 62.8122C127.467 62.7247 127.61 62.6134 127.721 62.4783C127.832 62.3351 127.912 62.1761 127.96 61.9932C128.007 61.8104 128.031 61.6196 128.031 61.4287ZM136.83 58.9083C137.005 58.6221 137.283 58.3597 137.664 58.1132C138.054 57.8747 138.555 57.7554 139.183 57.7554C139.755 57.7554 140.256 57.8667 140.677 58.0814C141.098 58.2961 141.448 58.5744 141.726 58.9242C141.996 59.2661 142.203 59.6636 142.33 60.1089C142.457 60.5462 142.521 60.9914 142.521 61.4287C142.521 61.8819 142.457 62.3272 142.33 62.7645C142.203 63.2018 141.996 63.5914 141.726 63.9412C141.448 64.2831 141.098 64.5693 140.677 64.784C140.256 64.9987 139.755 65.11 139.183 65.11C138.69 65.11 138.276 65.0305 137.943 64.8794C137.609 64.7363 137.331 64.5455 137.124 64.3308V68.0598H134.668V57.9701H136.83V58.9083ZM140.001 61.4287C140.001 61.23 139.969 61.0312 139.914 60.8324C139.858 60.6337 139.771 60.4587 139.652 60.2997C139.532 60.1407 139.373 60.0135 139.191 59.9181C139 59.8227 138.777 59.775 138.515 59.775C138.181 59.775 137.895 59.8624 137.649 60.0373C137.402 60.2202 137.227 60.419 137.124 60.6416V62.2238C137.227 62.4464 137.402 62.6452 137.649 62.8201C137.895 63.003 138.181 63.0905 138.515 63.0905C138.777 63.0905 139 63.0428 139.191 62.9474C139.373 62.8519 139.532 62.7247 139.652 62.5657C139.771 62.4067 139.858 62.2238 139.914 62.033C139.969 61.8342 140.001 61.6355 140.001 61.4287ZM150.199 62.9155C150.199 63.0825 150.247 63.1938 150.35 63.2574C150.445 63.3131 150.557 63.3449 150.676 63.3449C150.771 63.3449 150.867 63.3369 150.954 63.3051V64.8158C150.787 64.8874 150.596 64.9351 150.382 64.9748C150.167 65.0146 149.945 65.0305 149.714 65.0305C148.943 65.0305 148.395 64.7761 148.069 64.2672C147.735 64.5296 147.369 64.7363 146.98 64.8794C146.59 65.0305 146.153 65.11 145.66 65.11C145.327 65.11 145.017 65.0623 144.73 64.9589C144.436 64.8635 144.182 64.7283 143.967 64.5455C143.745 64.3626 143.57 64.14 143.443 63.8776C143.324 63.6073 143.26 63.3131 143.26 62.9712C143.26 62.5419 143.355 62.1761 143.538 61.8819C143.729 61.5957 143.967 61.3572 144.254 61.1823C144.54 60.9994 144.866 60.8801 145.215 60.8006C145.573 60.7291 145.915 60.6973 146.257 60.6973C146.773 60.6973 147.274 60.7529 147.751 60.8563V60.6098C147.751 60.3633 147.632 60.1566 147.401 59.9896C147.163 59.8306 146.805 59.7432 146.312 59.7432C145.851 59.7432 145.414 59.7988 145.009 59.9101C144.603 60.0214 144.23 60.1407 143.896 60.2759V58.2166C144.039 58.1689 144.206 58.1212 144.413 58.0655C144.611 58.0099 144.834 57.9622 145.072 57.9145C145.311 57.8667 145.557 57.827 145.811 57.8031C146.074 57.7713 146.328 57.7554 146.582 57.7554C147.131 57.7554 147.632 57.8111 148.077 57.9145C148.522 58.0178 148.903 58.2007 149.221 58.4472C149.539 58.7016 149.786 59.0276 149.952 59.441C150.119 59.8545 150.199 60.3713 150.199 60.9835V62.9155ZM145.78 62.7724C145.78 62.9553 145.851 63.1143 146.002 63.2495C146.153 63.3847 146.352 63.4483 146.614 63.4483C146.813 63.4483 147.012 63.4244 147.194 63.3687C147.377 63.3131 147.56 63.2256 147.751 63.0905V62.1523C147.647 62.1125 147.512 62.0807 147.353 62.0569C147.202 62.033 147.035 62.0251 146.876 62.0251C146.582 62.0251 146.328 62.0807 146.113 62.1841C145.891 62.2954 145.78 62.4942 145.78 62.7724ZM151.486 66.6922V63.0905H152.48C152.885 62.3908 153.14 61.6116 153.259 60.7529C153.37 59.9022 153.418 58.9719 153.386 57.9701H159.363V63.0905H160.42V66.6922H158.187V64.8874H153.72V66.6922H151.486ZM155.62 59.775C155.604 60.4587 155.548 61.055 155.453 61.5719C155.365 62.0807 155.206 62.5896 154.984 63.0905H156.915V59.775H155.62ZM161.485 64.8874V57.9701H163.933V61.2459L166.397 57.9701H168.543V64.8874H166.095V61.6196L163.631 64.8874H161.485ZM169.664 61.4287C169.664 60.8165 169.775 60.2838 169.982 59.8227C170.197 59.3695 170.475 58.9878 170.833 58.6777C171.19 58.3677 171.604 58.1371 172.072 57.986C172.541 57.8349 173.034 57.7554 173.559 57.7554C174.075 57.7554 174.568 57.8349 175.037 57.986C175.514 58.1371 175.927 58.3677 176.277 58.6777C176.635 58.9878 176.921 59.3695 177.128 59.8227C177.342 60.2838 177.446 60.8165 177.446 61.4287C177.446 62.0489 177.342 62.5816 177.128 63.0348C176.921 63.496 176.635 63.8776 176.277 64.1877C175.927 64.4898 175.514 64.7204 175.037 64.8794C174.568 65.0305 174.075 65.11 173.559 65.11C173.034 65.11 172.541 65.0305 172.072 64.8794C171.604 64.7204 171.19 64.4898 170.833 64.1877C170.475 63.8776 170.197 63.496 169.982 63.0348C169.775 62.5816 169.664 62.0489 169.664 61.4287ZM174.926 61.4287C174.926 61.2379 174.902 61.055 174.854 60.8722C174.807 60.6893 174.727 60.5223 174.616 60.3872C174.505 60.2441 174.362 60.1327 174.195 60.0453C174.02 59.9578 173.805 59.9181 173.559 59.9181C173.304 59.9181 173.09 59.9578 172.915 60.0453C172.74 60.1327 172.597 60.2441 172.494 60.3872C172.382 60.5223 172.311 60.6893 172.263 60.8722C172.216 61.055 172.192 61.2379 172.192 61.4287C172.192 61.6196 172.216 61.8104 172.263 61.9932C172.311 62.1761 172.382 62.3351 172.494 62.4783C172.597 62.6134 172.74 62.7247 172.915 62.8122C173.09 62.8996 173.304 62.9474 173.559 62.9474C173.805 62.9474 174.02 62.8996 174.195 62.8122C174.362 62.7247 174.505 62.6134 174.616 62.4783C174.727 62.3351 174.807 62.1761 174.854 61.9932C174.902 61.8104 174.926 61.6196 174.926 61.4287ZM181.269 63.6788C181.269 63.9333 181.229 64.14 181.149 64.3229C181.07 64.4978 180.967 64.6488 180.831 64.7602C180.696 64.8794 180.545 64.9589 180.363 65.0225C180.188 65.0782 179.997 65.11 179.798 65.11C179.6 65.11 179.417 65.0782 179.242 65.0225C179.059 64.9589 178.908 64.8794 178.773 64.7602C178.638 64.6488 178.526 64.4978 178.447 64.3229C178.368 64.14 178.328 63.9333 178.328 63.6788C178.328 63.4403 178.368 63.2336 178.447 63.0507C178.526 62.8758 178.638 62.7247 178.773 62.6134C178.908 62.4942 179.059 62.4146 179.242 62.351C179.417 62.2954 179.6 62.2636 179.798 62.2636C179.997 62.2636 180.188 62.2954 180.363 62.351C180.545 62.4146 180.696 62.4942 180.831 62.6134C180.967 62.7247 181.07 62.8758 181.149 63.0507C181.229 63.2336 181.269 63.4403 181.269 63.6788Z" fill="#FEFEFE"/>
<path fill-rule="evenodd" clip-rule="evenodd" d="M22.1598 23.304V23.2642L16.3655 19.5035C15.2845 18.7959 13.7982 17.8815 12.7649 17.1739L10.5791 15.7348C10.5791 14.4626 10.5315 13.0871 10.6268 11.8865C10.7143 10.7814 11.3263 10.026 12.2721 9.6444C13.2259 9.26276 14.4976 9.36612 15.7853 9.36612C18.893 9.36612 22.2472 9.31842 25.3311 9.36612C25.8637 9.37407 25.7444 9.37407 25.7444 8.80956V0H11.9939H11.8111H8.79873C7.13755 0.0636069 5.52405 0.341887 4.1172 1.31984C2.69446 2.30575 1.50222 4.03109 0.961741 5.69282L0.675603 6.59922C0.627913 6.75824 0.588172 6.9093 0.548431 7.06037L0.254345 8.51538C0.127172 9.1435 0 10.5667 0 11.2028C0.00794827 23.7572 0 36.3196 0 48.874H10.5791V30.1894C10.754 30.1417 11.1117 29.8794 11.3024 29.776L22.1598 23.304Z" fill="#FEFEFE"/>
<path d="M172.096 4.50098H42.1338V42.7844H172.096V4.50098Z" fill="#FEFEFE"/>
<path fill-rule="evenodd" clip-rule="evenodd" d="M128.285 15.4724C128.349 13.1666 128.293 10.7814 128.293 8.46767L128.277 5.85184C128.309 5.5338 128.476 5.4861 128.77 5.43839C129.772 5.25552 130.845 5.25552 131.735 5.62921C132.45 5.9234 133.237 6.63897 133.515 7.30685C133.794 7.94292 133.682 9.80342 133.682 10.6462V24.7192C133.682 26.9216 133.746 29.1638 132.999 31.072C132.355 32.694 131.004 34.0933 129.907 34.9123C125.496 38.2357 118.096 37.6076 114.948 33.4175C114.018 32.1772 113.271 30.3962 112.961 28.4482C112.643 26.4764 112.619 23.7413 112.81 21.7218C113.144 18.0405 115.099 14.8363 118.326 13.3177C121.315 11.9184 125.821 12.1648 127.912 14.9794C127.983 15.0748 128.214 15.4167 128.285 15.4724ZM46.1798 0H50.0586H50.2811H160.714H160.881H171.913C172.128 0 172.271 0.00795087 172.319 0.0159017L173.599 0.198772C173.996 0.27828 174.393 0.397543 174.743 0.516806C175.713 0.850743 176.603 1.30394 177.445 1.90026C177.525 1.95591 177.557 1.97182 177.644 2.03542C178.065 2.3296 178.487 2.69534 178.844 3.06903L180.148 4.67511C180.442 5.10446 180.752 5.58946 180.959 6.07446C181.674 7.72029 182 9.07194 182 10.9881V37.8461C182 39.3647 181.841 40.4063 181.412 41.7262C181.078 42.7677 180.521 43.7775 179.878 44.6441L179.202 45.4472C178.638 46.1786 177.581 46.9658 176.81 47.4428C176.206 47.8165 175.538 48.1266 174.807 48.381C173.662 48.7706 172.78 48.8899 171.802 48.9217H169.775H169.545C130.805 48.9217 92.0652 48.9217 53.3253 48.9217H53.1187H46.8077C45.8539 48.8978 45.075 48.8581 44.6935 48.7945C43.4695 48.5878 42.4759 48.2538 41.4506 47.6734L40.5445 47.1168C38.16 45.4949 36.3955 42.7995 35.9822 39.8656C35.8709 39.1024 35.9027 39.2057 35.8709 38.4822C35.855 38.2437 35.8232 38.0608 35.8232 37.7587V31.0879C35.6484 31.0481 35.5212 30.9527 35.3781 30.8653C35.2351 30.7778 35.092 30.6903 34.9489 30.6188C34.6707 30.4598 34.3846 30.3008 34.0905 30.1258C32.9698 29.4421 31.8173 28.8219 30.6728 28.1699L22.5735 23.5187C22.4622 23.4551 22.2873 23.3358 22.1602 23.304V23.2642L22.2555 23.1847C22.2635 23.1768 22.2714 23.1688 22.2794 23.1688C22.8676 22.7554 24.0757 22.0875 24.7195 21.6979C24.8785 21.6025 24.9818 21.5469 25.1408 21.4435C25.2997 21.3481 25.4031 21.2845 25.562 21.197L27.716 19.901C27.8829 19.8056 27.9783 19.742 28.1373 19.6466L31.1338 17.8417C31.2927 17.7543 31.396 17.6907 31.555 17.5953C31.9683 17.3329 35.6245 15.1066 35.8232 15.051C35.8232 14.0571 35.8232 13.0553 35.8232 12.0615C35.8232 9.50924 35.9663 8.02243 37.0314 5.81208C37.5242 4.79437 38.4144 3.55404 39.2569 2.83051C39.6463 2.49657 40.0358 2.14673 40.465 1.85255C42.4918 0.469101 44.2166 0.0874595 46.1798 0ZM109.631 25.9834L94.1079 26.1186C93.9648 26.8342 94.243 28.0984 94.4576 28.7185C94.7199 29.4818 95.1094 30.102 95.5624 30.5711C96.6752 31.7319 98.0423 32.3521 99.7671 32.1613C101.5 31.9784 102.74 31.0163 103.638 30.1815C104.123 29.7283 103.805 29.768 104.687 29.768H109.059C108.916 30.579 107.668 32.6065 107.119 33.2903C106.308 34.308 105.474 35.119 104.194 35.8425C101.659 37.2737 98.2887 37.6474 95.324 36.5104C92.701 35.5086 90.857 33.6242 89.792 31.1038C89.2197 29.7442 88.8143 28.4403 88.6474 26.7626C88.4805 25.077 88.4487 23.1847 88.7031 21.523C89.1959 18.2711 90.857 15.8302 92.558 14.399C94.6643 12.626 97.7323 11.9661 101.134 12.5783C105.816 13.4211 108.224 16.6968 109.202 20.8949C109.44 21.9285 109.83 24.926 109.631 25.9834ZM70.6208 36.733H64.8583C64.8026 31.9148 64.8503 26.9932 64.8503 22.1511C64.8503 21.1175 64.9139 20.4417 64.4926 19.575C63.1891 16.8797 58.4678 17.1182 56.9338 19.6545C56.4808 20.4099 56.4331 21.0459 56.4331 22.0637V33.7832C56.4331 34.7214 56.4808 35.7869 56.4251 36.7092C56.0516 36.7569 51.2588 36.7569 51.0601 36.7012C51.0044 34.9043 51.0442 33.02 51.0362 31.2151C51.0203 29.3785 51.0124 27.5339 51.0044 25.6972C50.9885 23.8765 50.9408 21.9921 50.9806 20.1793C51.0124 18.454 51.4257 16.991 52.2444 15.9097C52.9835 14.9317 53.9214 14.2002 55.3283 13.5562C58.9845 11.8786 63.8647 11.8627 67.0361 14.4467C67.1633 14.5501 67.2666 14.6534 67.3938 14.7648C67.5209 14.8681 67.6402 15.0271 67.7753 15.1146C68.1727 14.8284 68.2919 14.5103 69.2695 13.8902C73.4901 11.2266 80.1507 12.1728 83.2188 15.9176C84.1567 17.0705 84.6177 18.0087 84.6018 20.0123L84.562 33.7355C84.562 34.634 84.6018 35.6358 84.5541 36.5183C82.8929 36.9318 80.7071 36.8841 79.7374 35.3098C78.8631 33.8786 79.1016 31.2867 79.1016 29.3785C79.1016 27.184 79.1016 24.9896 79.1016 22.7872C79.1016 21.7536 79.2049 20.6882 78.7995 19.8215C77.337 16.7048 71.7653 16.832 70.7797 20.4019C70.5333 21.2765 70.6208 22.5487 70.6208 23.5187C70.6208 27.9155 70.6764 32.3441 70.6208 36.733ZM154.284 18.8038L148.673 18.8118C148.585 18.3029 149.412 16.6332 149.634 16.2913C151.113 14.0651 153.545 12.9281 156.351 12.5862C159.912 12.1489 164.418 13.1428 166.31 16.2754C166.882 17.2295 167.017 17.7225 167.009 19.0741V26.1266C167.009 27.2476 167.097 28.5357 166.954 29.6249C166.691 31.5888 165.412 33.2187 164.458 34.1251C163.886 34.6737 163.274 35.1746 162.455 35.6119C159.856 37.0113 156.772 37.4804 153.855 36.7569C152.146 36.3355 150.517 35.5642 149.531 34.141C147.457 31.1833 148.1 25.7926 150.986 24.0116C152.194 23.2642 154.713 22.7395 156.327 22.4373C157.281 22.2545 158.242 22.0875 159.164 21.849C160.015 21.6184 160.881 21.2845 161.485 20.6723C162.161 19.9805 161.994 18.772 161.398 18.1518C161.08 17.8179 160.865 17.643 160.42 17.4044C159.157 16.7207 157.408 16.5617 156.144 17.158C155.262 17.5714 154.801 18.1359 154.284 18.8038ZM144.444 36.7012H139.055V16.5458C139.055 15.4485 139.024 14.3036 139.039 13.2064C139.047 12.7452 139.381 12.7532 140.136 12.6578C141.742 12.4749 142.72 12.8247 143.785 13.8743C144.46 14.5501 144.468 15.2816 144.444 16.506C144.412 18.7322 144.444 20.9903 144.444 23.2165C144.444 27.7167 144.444 32.209 144.444 36.7012ZM139.055 10.2328C139.055 8.94473 139.063 7.65669 139.055 6.36864C139.055 5.39069 139.055 5.52585 139.985 5.40659C141.607 5.19192 143.093 5.55766 144.007 6.88545C144.675 7.86341 144.46 8.89702 144.444 10.2089C144.246 10.2725 139.524 10.2725 139.055 10.2328Z" fill="#f01f30"/>
<path fill-rule="evenodd" clip-rule="evenodd" d="M128.731 25.3145C128.945 21.4742 126.903 17.6419 123.731 17.2285C121.617 16.9502 120.17 18.2541 119.344 19.3196C117.23 22.0388 117.118 26.6503 118.899 29.5762C119.622 30.7529 120.846 32.0966 122.682 32.3272C124.796 32.5896 126.259 31.2697 127.054 30.2281C127.984 29.0117 128.627 27.3102 128.731 25.3145Z" fill="#f01f30"/>
<path fill-rule="evenodd" clip-rule="evenodd" d="M161.659 27.2396V24.6396C161.516 24.6794 160.912 24.9895 160.348 25.1485C159.839 25.2996 159.322 25.395 158.79 25.4745C157.725 25.6415 156.572 25.7448 155.595 26.039C154.561 26.357 153.902 26.8738 153.504 27.7087C153.083 28.6151 153.012 30.0144 153.465 30.9208C154.673 33.3538 159.227 33.004 161.031 30.4358C161.612 29.6089 161.659 28.4322 161.659 27.2396Z" fill="#f01f30"/>
<path fill-rule="evenodd" clip-rule="evenodd" d="M94.2031 22.1034L103.884 22.1113C103.67 19.5193 101.682 17.1102 99.0595 17.1579C96.532 17.1977 94.3303 19.5591 94.2031 22.1034Z" fill="#f01f30"/>
</svg>
