<svg width="57" height="59" viewBox="0 0 57 59" xmlns="http://www.w3.org/2000/svg">
<path d="M7.35506 26.6625L28.5 6.87486L49.6454 26.6625V58.9999H34.9357V36.9426C34.9357 35.9618 34.1386 35.1671 33.1549 35.1671H23.8455C22.8618 35.1671 22.0647 35.9618 22.0647 36.9426V58.9999H7.35506V26.6625Z"/>
<path fill-rule="evenodd" clip-rule="evenodd" d="M28.5 0L56.4142 25.9126C57.1574 26.6025 57.199 27.7625 56.507 28.5036C55.815 29.2446 54.6516 29.2861 53.9084 28.5961L28.5 5.00973L3.09165 28.5961C2.34842 29.2861 1.18495 29.2446 0.492976 28.5036C-0.198998 27.7625 -0.157446 26.6025 0.585786 25.9126L28.5 0Z"/>
<path d="M38.6129 6.17148V9.83807L45.9677 17.1713V6.17148H38.6129Z"/>
</svg>
