<svg width="34" height="59" viewBox="0 0 34 59" xmlns="http://www.w3.org/2000/svg">
<path fill-rule="evenodd" clip-rule="evenodd" d="M0 29C0 27.8941 0.896367 27 2 27C3.10363 27 4 27.8941 4 29V35C4 42.1677 9.83228 48 17 48C24.1677 48 30 42.1677 30 35V29C30 27.8941 30.8964 27 32 27C33.1036 27 34 27.8941 34 29V35C34 43.6977 27.4319 50.869 19 51.8627V55H23C24.1036 55 25 55.8941 25 57C25 58.1059 24.1036 59 23 59H11C9.89637 59 9 58.1059 9 57C9 55.8941 9.89637 55 11 55H15V51.8627C6.56816 50.8691 0 43.6987 0 35V29ZM16.8365 49.9991L17 50.0093L17.1635 49.9991C17.1091 49.9997 17.0546 50 17 50C16.9454 50 16.8909 49.9997 16.8365 49.9991Z"/>
<path d="M17 46C23.065 46 28 41.065 28 35V11C28 4.935 23.065 0 17 0C10.935 0 6 4.935 6 11V35C6 41.065 10.935 46 17 46Z"/>
</svg>
