<svg width="25" height="24" viewBox="0 0 25 24" xmlns="http://www.w3.org/2000/svg">
<path d="M21.1736 0H3.32642C1.49222 0 0 1.46177 0 3.25854V20.7415C0 22.5383 1.49222 24 3.32642 24H21.1736C23.0078 24 24.5 22.5383 24.5 20.7415V3.25854C24.5 1.46177 23.0078 0 21.1736 0ZM12.25 17.8631C9.22873 17.8631 6.77079 15.4553 6.77079 12.4957C6.77079 9.53619 9.22881 7.12833 12.25 7.12833C15.2712 7.12833 17.7292 9.53619 17.7292 12.4957C17.7292 15.4553 15.2713 17.8631 12.25 17.8631ZM22.4257 8.53366H17.4753C16.2256 7.06817 14.3471 6.13423 12.25 6.13423C10.1529 6.13423 8.27441 7.06825 7.02474 8.53366H2.07431V3.87343C2.07431 2.68891 3.05811 1.72527 4.26731 1.72527H20.2328C21.442 1.72527 22.4258 2.68891 22.4258 3.87343V8.53366H22.4257Z"/>
<path d="M3.52242 -1.96996e-07C1.58025 -1.96996e-07 -2.06257e-08 1.54792 -2.06257e-08 3.45045C-2.06257e-08 5.35308 1.58017 6.90091 3.52242 6.90091C5.46468 6.90091 7.04485 5.35308 7.04485 3.45045C7.04485 1.54792 5.4646 -1.96996e-07 3.52242 -1.96996e-07Z" transform="translate(8.72754 9.04541)"/>
<path d="M2.99863 9.34469e-08H0.878706C0.394197 9.34469e-08 2.78447e-07 0.386235 2.78447e-07 0.860855V2.93752C2.78447e-07 3.41214 0.394112 3.79829 0.878706 3.79829H2.99863C3.48314 3.79829 3.87734 3.41222 3.87734 2.93752V0.860855C3.87734 0.386152 3.48314 9.34469e-08 2.99863 9.34469e-08Z" transform="translate(16.7271 3.10254)"/>
</svg>
