<svg width="25" height="24" viewBox="0 0 25 24" xmlns="http://www.w3.org/2000/svg">
<path fill-rule="evenodd" clip-rule="evenodd" d="M3 0C1.34314 0 0 1.34326 0 3V21C0 22.6567 1.34314 24 3 24H21.5C23.1569 24 24.5 22.6567 24.5 21V3C24.5 1.34326 23.1569 0 21.5 0H3ZM21.4211 16.6621C21.4407 16.6919 21.4617 16.7285 21.4844 16.7729C21.507 16.8174 21.5297 16.896 21.5527 17.0078C21.5752 17.1201 21.5738 17.2207 21.5478 17.3096C21.5217 17.3979 21.4409 17.4795 21.3047 17.5532C21.1689 17.627 20.9775 17.6641 20.7314 17.6641L18.2434 17.6997C18.0877 17.729 17.9063 17.7144 17.6993 17.6553C17.4919 17.5962 17.3235 17.5312 17.1937 17.46L16.9994 17.3535C16.8051 17.2295 16.5784 17.0405 16.3191 16.7861C16.0599 16.5322 15.8381 16.3032 15.6534 16.0996C15.4686 15.8955 15.2711 15.7241 15.0605 15.5854C14.8497 15.4463 14.6667 15.4004 14.5112 15.4478C14.4918 15.4536 14.466 15.4639 14.4337 15.4785C14.4012 15.4937 14.3459 15.5366 14.2682 15.6074C14.1907 15.6782 14.121 15.7651 14.0593 15.8687C13.9976 15.9722 13.9424 16.126 13.8939 16.3296C13.8455 16.5337 13.8243 16.7627 13.8309 17.0166C13.8309 17.105 13.8196 17.1865 13.7969 17.2603C13.7744 17.334 13.7501 17.3892 13.7241 17.4243L13.6854 17.4688C13.5687 17.5811 13.3969 17.646 13.1702 17.6636H12.0526C11.5925 17.687 11.1195 17.6387 10.6335 17.5171C10.1476 17.396 9.72162 17.2397 9.35547 17.0479C8.98938 16.8555 8.65576 16.6606 8.35437 16.4624C8.0531 16.2646 7.82477 16.0947 7.66925 15.9526L7.42621 15.7397C7.36145 15.6807 7.27234 15.5923 7.15887 15.4741C7.04553 15.356 6.8139 15.0869 6.46405 14.6675C6.11414 14.2476 5.77069 13.8018 5.43384 13.3286C5.09698 12.856 4.70007 12.2324 4.24329 11.4585C3.78656 10.6841 3.36377 9.88037 2.97504 9.04688C2.9361 8.95264 2.91669 8.87256 2.91669 8.80762C2.91669 8.74268 2.92651 8.69531 2.94592 8.66602L2.98486 8.61279C3.08203 8.50049 3.26672 8.44434 3.53882 8.44434L6.20178 8.42676C6.2796 8.43848 6.35406 8.45752 6.42535 8.48389C6.49658 8.51074 6.54846 8.53564 6.58081 8.55957L6.62946 8.58594C6.73309 8.65137 6.81091 8.74561 6.86267 8.86963C6.99219 9.16504 7.14117 9.47119 7.30975 9.7876C7.47827 10.1035 7.61102 10.3442 7.70819 10.5098L7.86365 10.7671C8.05157 11.1216 8.23297 11.4287 8.40784 11.689C8.58289 11.9487 8.73999 12.1514 8.87933 12.2959C9.01868 12.4409 9.15308 12.5547 9.28259 12.6372C9.41217 12.7202 9.52228 12.7617 9.61304 12.7617C9.70367 12.7617 9.79132 12.7466 9.87549 12.7173C9.88837 12.7114 9.9046 12.6963 9.92401 12.6729C9.94348 12.6494 9.9823 12.5845 10.0407 12.478C10.099 12.3716 10.1427 12.2329 10.1719 12.0615C10.2012 11.8896 10.2318 11.6504 10.2643 11.3433C10.2966 11.0361 10.2966 10.6665 10.2643 10.2349C10.2514 9.99854 10.2222 9.7832 10.1768 9.58789C10.1315 9.39307 10.0861 9.25732 10.0407 9.18018L9.9823 9.07373C9.82031 8.87305 9.54504 8.74561 9.15625 8.69287C9.07202 8.68115 9.08832 8.60986 9.20496 8.47998C9.31506 8.36768 9.43817 8.27881 9.57422 8.21387C9.91766 8.06055 10.692 7.98926 11.897 8.00146C12.4285 8.00732 12.8658 8.04541 13.2092 8.1167C13.3386 8.146 13.4473 8.18604 13.5348 8.23633C13.6221 8.28662 13.6886 8.35742 13.7341 8.44873C13.7792 8.54053 13.8135 8.63525 13.8358 8.73242C13.8585 8.83008 13.8699 8.96484 13.8699 9.13623C13.8699 9.30762 13.8668 9.47021 13.8602 9.62354L13.8358 10.2485C13.8262 10.5117 13.8214 10.7554 13.8214 10.98C13.8214 11.0449 13.8184 11.1689 13.8116 11.3521C13.8051 11.5352 13.8036 11.6772 13.8067 11.7778C13.8099 11.8784 13.8214 11.998 13.8408 12.1367C13.8602 12.2759 13.8973 12.3911 13.9526 12.4824C14.0075 12.5742 14.0804 12.6465 14.1711 12.6997L14.3365 12.7354C14.3948 12.7471 14.4789 12.7148 14.5891 12.6377C14.6994 12.5605 14.8223 12.459 14.9585 12.332C15.0944 12.2051 15.2629 12.0068 15.4637 11.7378C15.6648 11.4692 15.8849 11.1514 16.1247 10.7852C16.5135 10.1704 16.86 9.50537 17.1647 8.79053C17.1906 8.73145 17.223 8.67969 17.2617 8.63525C17.3006 8.59082 17.3362 8.56006 17.3687 8.54248L17.4073 8.51562L17.4561 8.49365L17.5825 8.4668C17.6668 8.44922 17.7316 8.44775 17.7769 8.4624L20.5759 8.44482C20.8286 8.41504 21.0359 8.42236 21.1981 8.4668C21.3599 8.51123 21.4603 8.56006 21.4992 8.61328L21.5571 8.70166C21.7062 9.07959 21.2202 9.94824 20.0992 11.3076C19.9438 11.4971 19.7333 11.748 19.4675 12.061C18.9623 12.6523 18.6705 13.0391 18.5928 13.2227C18.4828 13.4648 18.528 13.7041 18.7291 13.9404C18.8391 14.0649 19.1016 14.3071 19.5162 14.6675H19.5261L19.5358 14.6768L19.5455 14.6851L19.5648 14.7031C20.4783 15.4771 21.0972 16.1304 21.4211 16.6621Z" transform="translate(0.5)"/>
</svg>
