<svg width="38" height="38" viewBox="0 0 38 38" xmlns="http://www.w3.org/2000/svg">
<path d="M14.7714 0C6.61413 0 0 6.61311 0 14.7692C0 22.9252 6.61413 29.5384 14.7715 29.5384C17.9083 29.5384 20.8173 28.5601 23.2086 26.8938V26.8921L34.1638 37.8456C34.3671 38.0489 34.6903 38.0541 34.8989 37.8456L37.8514 34.8935C38.0547 34.6902 38.0443 34.3532 37.8514 34.1585L26.8979 23.2067C28.5644 20.8141 29.5428 17.9054 29.5428 14.7692C29.5428 6.61311 22.9287 0 14.7714 0ZM14.7714 26.0632C8.53261 26.0632 3.47558 21.007 3.47558 14.7692C3.47558 8.53136 8.53267 3.47511 14.7714 3.47511C21.0101 3.47511 26.0672 8.53136 26.0672 14.7692C26.0672 21.007 21.0102 26.0632 14.7714 26.0632Z"/>
<path d="M6.95123 -2.19777e-07H5.21344V5.21264H-4.01724e-07V6.95016H5.21344V12.1629H6.95123V6.95016H12.1647V5.21264H6.95123V-2.19777e-07Z" transform="translate(8.68945 8.68774)"/>
</svg>
